<svg width="326" height="59" viewBox="0 0 326 59" fill="none" xmlns="http://www.w3.org/2000/svg">
<g clip-path="url(#clip0_34_10165)">
<rect width="326" height="59" rx="8" fill="url(#paint0_linear_34_10165)"/>
<path d="M234.592 58.6122L234.135 58.9502L189.321 -1.61261L189.778 -1.95068L234.592 58.6122ZM239.762 58.6122L239.305 58.9502L194.491 -1.61261L194.948 -1.95068L239.762 58.6122ZM244.932 58.6122L244.475 58.9502L199.661 -1.61261L200.118 -1.95068L244.932 58.6122ZM250.102 58.6122L249.645 58.9502L204.831 -1.61261L205.287 -1.95068L250.102 58.6122ZM255.271 58.6122L254.814 58.9502L210 -1.61261L210.456 -1.95068L255.271 58.6122ZM260.44 58.6122L259.984 58.9502L215.169 -1.61261L215.626 -1.95068L260.44 58.6122ZM265.61 58.6122L265.154 58.9502L220.339 -1.61261L220.796 -1.95068L265.61 58.6122ZM270.78 58.6122L270.323 58.9502L225.509 -1.61261L225.966 -1.95068L270.78 58.6122ZM275.95 58.6122L275.493 58.9502L230.679 -1.61261L231.136 -1.95068L275.95 58.6122ZM281.12 58.6122L280.663 58.9502L235.849 -1.61261L236.306 -1.95068L281.12 58.6122ZM286.29 58.6122L285.833 58.9502L241.019 -1.61261L241.476 -1.95068L286.29 58.6122Z" fill="#F0C590"/>
<path d="M284.816 58.6122L285.273 58.9502L330.087 -1.61261L329.63 -1.95068L284.816 58.6122ZM279.646 58.6122L280.103 58.9502L324.917 -1.61261L324.46 -1.95068L279.646 58.6122ZM274.476 58.6122L274.933 58.9502L319.747 -1.61261L319.29 -1.95068L274.476 58.6122ZM269.306 58.6122L269.763 58.9502L314.577 -1.61261L314.12 -1.95068L269.306 58.6122ZM264.137 58.6122L264.594 58.9502L309.408 -1.61261L308.951 -1.95068L264.137 58.6122ZM258.967 58.6122L259.424 58.9502L304.238 -1.61261L303.781 -1.95068L258.967 58.6122ZM253.797 58.6122L254.254 58.9502L299.068 -1.61261L298.611 -1.95068L253.797 58.6122ZM248.627 58.6122L249.084 58.9502L293.898 -1.61261L293.441 -1.95068L248.627 58.6122ZM243.457 58.6122L243.914 58.9502L288.728 -1.61261L288.271 -1.95068L243.457 58.6122ZM238.287 58.6122L238.744 58.9502L283.558 -1.61261L283.102 -1.95068L238.287 58.6122ZM233.117 58.6122L233.574 58.9502L278.388 -1.61261L277.932 -1.95068L233.117 58.6122Z" fill="#DEA662"/>
<rect x="54.5" y="-18" width="37" height="75" transform="rotate(30 54.5 -18)" fill="url(#paint1_linear_34_10165)"/>
</g>
<defs>
<linearGradient id="paint0_linear_34_10165" x1="0" y1="29.5" x2="326" y2="29.5" gradientUnits="userSpaceOnUse">
<stop stop-color="#FFE1BB"/>
<stop offset="1" stop-color="#FBD3A0"/>
</linearGradient>
<linearGradient id="paint1_linear_34_10165" x1="54.5" y1="19.5" x2="91.5" y2="19.5" gradientUnits="userSpaceOnUse">
<stop stop-color="white" stop-opacity="0"/>
<stop offset="1" stop-color="white" stop-opacity="0.3"/>
</linearGradient>
<clipPath id="clip0_34_10165">
<rect width="326" height="59" rx="8" fill="white"/>
</clipPath>
</defs>
</svg>
