<svg width="33" height="33" viewBox="0 0 33 33" fill="none" xmlns="http://www.w3.org/2000/svg">
<g clip-path="url(#clip0_4359_2496)">
<path d="M0.475098 8.13672C0.475098 3.71844 4.05682 0.136719 8.47509 0.136719H24.4751C28.8933 0.136719 32.4751 3.71844 32.4751 8.13672V24.1367C32.4751 28.555 28.8933 32.1367 24.4751 32.1367H8.47509C4.05682 32.1367 0.475098 28.555 0.475098 24.1367V8.13672Z" fill="url(#paint0_linear_4359_2496)"/>
<path d="M24.0717 18.3397L18.7263 12.9943C18.7263 12.9943 18.5272 12.8871 18.3893 12.9943C17.6695 13.7295 17.0874 14.3115 16.6126 14.7251C16.1378 15.1386 15.4792 15.399 14.9279 15.4603C14.3765 15.5062 13.626 15.6134 12.8448 14.7863C12.7836 14.7251 12.753 14.6332 12.753 14.5413C12.753 14.4494 12.7836 14.3728 12.8448 14.3115L16.4442 10.7275C16.1378 10.4365 15.9387 10.2374 15.8468 10.1608C14.9891 9.41034 13.9629 8.92022 13.1512 8.50669L12.998 8.4301C12.8755 8.35352 12.7376 8.29226 12.5998 8.23099L12.4619 8.16973L12.4466 8.15441C12.0025 7.92467 11.3745 7.60303 10.7772 7.60303C10.3483 7.60303 9.98071 7.77151 9.64376 8.09315L4.66598 13.1016C3.747 14.0205 3.79295 14.7863 3.8389 15.2305C3.85422 15.3071 3.85422 15.3684 3.85422 15.399C3.88485 15.7666 4.23712 16.2414 4.81914 16.9306C4.92635 17.0531 5.04888 17.191 5.14078 17.3135C5.47774 17.7271 5.7228 18.1406 5.96786 18.5388L6.07507 18.7226C6.48861 19.3965 6.96341 20.1777 7.92834 21.1273L14.162 27.3916C14.5909 27.8205 15.1576 28.1115 15.7396 28.1881C15.8162 28.2034 15.9234 28.2034 16.0153 28.2034C16.4901 28.2034 16.919 28.0349 17.21 27.7286L17.3478 27.5907C17.8992 27.0393 17.1334 26.2276 17.1334 26.2276L14.5909 23.6851C14.5296 23.6238 14.4837 23.5319 14.4837 23.44C14.4837 23.3481 14.5143 23.2562 14.5909 23.195C14.6522 23.1337 14.7441 23.0877 14.836 23.0877C14.9279 23.0877 15.0198 23.1184 15.081 23.195L17.6235 25.7375C17.6235 25.7375 18.5425 26.5492 19.2624 26.0897C19.4155 25.9519 19.5687 25.814 19.7372 25.6609C20.3192 25.0023 19.6299 24.1599 19.6299 24.1599L16.873 21.403C16.8118 21.3417 16.7658 21.2498 16.7658 21.1579C16.7658 21.066 16.7964 20.9741 16.873 20.9128C16.9343 20.8516 17.0262 20.8056 17.1181 20.8056C17.21 20.8056 17.3019 20.8363 17.3631 20.9128L20.2732 23.8076C20.2732 23.8076 20.9778 24.5581 21.6364 24.2211L21.8202 24.068L22.3716 23.5779C22.3716 23.5779 22.4022 23.5319 22.4328 23.5013C22.9842 22.7661 22.3409 21.9697 22.3409 21.9697L19.3083 18.937C19.247 18.8758 19.2011 18.7839 19.2011 18.692C19.2011 18.6001 19.2317 18.5082 19.3083 18.4469C19.3696 18.3857 19.4615 18.3397 19.5534 18.3397C19.6453 18.3397 19.7372 18.3703 19.7984 18.4469L22.2184 20.8669C22.2184 20.8669 23.1527 21.7552 24.1636 21.112C24.4086 20.8669 24.6077 20.6678 24.6843 20.2696C24.8681 19.5344 24.6077 18.8758 24.0717 18.3397Z" fill="white"/>
<path d="M27.4567 13.1322L21.7131 7.38859C20.4112 6.08671 18.9868 5.96418 17.9147 7.03631L15.6938 9.25717L11.7576 13.1934C11.4512 13.4845 11.4512 13.9746 11.7423 14.2809C12.6919 15.1233 13.8559 15.4143 13.8559 15.4143C13.5343 15.3224 13.1973 15.1386 12.8603 14.7863C12.7991 14.7251 12.7684 14.6332 12.7684 14.5413C12.7684 14.4494 12.7991 14.3728 12.8603 14.3115L13.473 13.6989L16.7813 10.3906L19.0328 8.13908C19.3085 7.86339 19.5076 7.86339 19.6454 7.87871C19.8292 7.90934 20.1509 8.03187 20.6104 8.49136L26.354 14.2349C26.89 14.771 27.3801 15.5368 26.7522 16.1648L25.5728 17.3441C25.5 17.4163 25.4422 17.5022 25.4028 17.5969C25.3634 17.6915 25.3431 17.793 25.3431 17.8955C25.3431 17.9981 25.3634 18.0996 25.4028 18.1942C25.4422 18.2888 25.5 18.3747 25.5728 18.4469C25.726 18.6001 25.9251 18.6767 26.1242 18.6767C26.3233 18.6767 26.5224 18.6001 26.6756 18.4469L27.8549 17.2676C29.0037 16.1188 28.8505 14.526 27.4567 13.1322Z" fill="white"/>
</g>
<defs>
<linearGradient id="paint0_linear_4359_2496" x1="0.475098" y1="0.136719" x2="27.9751" y2="32.1367" gradientUnits="userSpaceOnUse">
<stop stop-color="#F0C238"/>
<stop offset="1" stop-color="#F05440"/>
</linearGradient>
<clipPath id="clip0_4359_2496">
<rect width="33" height="33" fill="white"/>
</clipPath>
</defs>
</svg>
