<svg width="24" height="24" viewBox="0 0 24 24" fill="none" xmlns="http://www.w3.org/2000/svg">
  <path d="M16 4C18.21 4 20 5.79 20 8S18.21 12 16 12 12 10.21 12 8 13.79 4 16 4Z" fill="#66bb6a"/>
  <path d="M16 14C19.31 14 22 15.79 22 18V20H10V18C10 15.79 12.69 14 16 14Z" fill="#66bb6a"/>
  <path d="M8 12C10.21 12 12 10.21 12 8S10.21 4 8 4 4 5.79 4 8 5.79 12 8 12Z" fill="#66bb6a"/>
  <path d="M8 14C4.69 14 2 15.79 2 18V20H10V18C10 16.38 9.25 14.96 8.14 14.28C8.09 14.19 8.04 14.09 8 14Z" fill="#66bb6a"/>
</svg>
