<svg width="25" height="24" viewBox="0 0 25 24" fill="none" xmlns="http://www.w3.org/2000/svg">
<path d="M5.83499 18.4898V15.5698C5.83499 14.5998 6.59499 13.7298 7.67499 13.7298C8.64499 13.7298 9.51499 14.4898 9.51499 15.5698V18.3798C9.51499 20.3298 7.89499 21.9498 5.94499 21.9498C3.99499 21.9498 2.37499 20.3198 2.37499 18.3798V12.2198C2.26499 6.5998 6.70499 2.0498 12.325 2.0498C17.945 2.0498 22.375 6.5998 22.375 12.1098V18.2698C22.375 20.2198 20.755 21.8398 18.805 21.8398C16.855 21.8398 15.235 20.2198 15.235 18.2698V15.4598C15.235 14.4898 15.995 13.6198 17.075 13.6198C18.045 13.6198 18.915 14.3798 18.915 15.4598V18.4898" stroke="white" stroke-width="1.5" stroke-linecap="round" stroke-linejoin="round"/>
</svg>
