<svg width="33" height="33" viewBox="0 0 33 33" fill="none" xmlns="http://www.w3.org/2000/svg">
<g clip-path="url(#clip0_4359_2496)">
<path d="M0.475098 8.13672C0.475098 3.71844 4.05682 0.136719 8.47509 0.136719H24.4751C28.8933 0.136719 32.4751 3.71844 32.4751 8.13672V24.1367C32.4751 28.555 28.8933 32.1367 24.4751 32.1367H8.47509C4.05682 32.1367 0.475098 28.555 0.475098 24.1367V8.13672Z" fill="url(#paint0_linear_4359_2496)"/>
<path d="M26.1842 6H6.81579C5.78684 6 5 6.76696 5 7.76991V24.2301C5 25.174 5.78684 26 6.81579 26H26.1842C27.1526 26 28 25.174 28 24.2301V7.76991C28 6.82596 27.2132 6 26.1842 6ZM10.9316 9.00885C11.9605 9.00885 12.8684 9.83481 12.8684 10.8968C12.8684 11.9587 12.0211 12.7847 10.9316 12.7847C9.90263 12.7847 8.99474 11.9587 8.99474 10.8968C8.99474 9.83481 9.90263 9.00885 10.9316 9.00885ZM9.53947 23.3451C9.35789 23.3451 9.17632 23.2861 8.99474 23.1681C8.63158 22.8732 8.63158 22.4602 8.93421 22.1062L12.6868 16.9735C12.9895 16.6785 13.4132 16.6195 13.7763 16.8555L17.0447 19.0973L22.9158 12.9617C23.2184 12.6667 24.6711 11.1327 25.5184 12.8437V23.2861C25.5184 23.3451 9.53947 23.3451 9.53947 23.3451Z" fill="white"/>
</g>
<defs>
<linearGradient id="paint0_linear_4359_2496" x1="0.475098" y1="0.136719" x2="27.9751" y2="32.1367" gradientUnits="userSpaceOnUse">
<stop stop-color="#F0C238"/>
<stop offset="1" stop-color="#F05440"/>
</linearGradient>
<clipPath id="clip0_4359_2496">
<rect width="33" height="33" fill="white"/>
</clipPath>
</defs>
</svg>
