<svg width="33" height="33" viewBox="0 0 33 33" fill="none" xmlns="http://www.w3.org/2000/svg">
<rect x="0.475254" y="0.136719" width="32" height="32" rx="8" fill="url(#paint0_linear_972_2651)"/>
<path d="M16.4753 6.13672C10.9553 6.13672 6.47525 10.6167 6.47525 16.1367C6.47525 21.6567 10.9553 26.1367 16.4753 26.1367C21.9953 26.1367 26.4753 21.6567 26.4753 16.1367C26.4753 10.6167 21.9953 6.13672 16.4753 6.13672ZM19.1353 17.8667L17.8553 18.6067L16.5753 19.3467C14.9253 20.2967 13.5753 19.5167 13.5753 17.6167V16.1367V14.6567C13.5753 12.7467 14.9253 11.9767 16.5753 12.9267L17.8553 13.6667L19.1353 14.4067C20.7853 15.3567 20.7853 16.9167 19.1353 17.8667Z" fill="white"/>
<defs>
<linearGradient id="paint0_linear_972_2651" x1="0.475254" y1="0.136719" x2="32.4753" y2="36.6367" gradientUnits="userSpaceOnUse">
<stop stop-color="#A8E063"/>
<stop offset="1" stop-color="#57AB2E"/>
</linearGradient>
</defs>
</svg>
