<svg width="15" height="16" viewBox="0 0 15 16" fill="none" xmlns="http://www.w3.org/2000/svg">
<ellipse cx="2.06635" cy="2.64613" rx="2.06635" ry="2.64613" transform="matrix(0.928648 0.370962 -0.475524 0.879703 9.3425 2.79053)" fill="url(#paint0_linear_15_8938)"/>
<ellipse cx="1.75987" cy="2.17941" rx="1.75987" ry="2.17941" transform="matrix(0.928648 0.370962 -0.475524 0.879703 9.6214 3.30444)" fill="white"/>
<ellipse cx="1.14516" cy="1.4937" rx="1.14516" ry="1.4937" transform="matrix(0.928648 0.370962 -0.475524 0.879703 10.6382 3.8186)" fill="black"/>
<ellipse cx="2.06635" cy="2.64613" rx="2.06635" ry="2.64613" transform="matrix(0.928648 0.370962 -0.475524 0.879703 5.75488 2.79053)" fill="url(#paint1_linear_15_8938)"/>
<ellipse cx="1.75987" cy="2.17941" rx="1.75987" ry="2.17941" transform="matrix(0.928648 0.370962 -0.475524 0.879703 6.03378 3.30444)" fill="white"/>
<ellipse cx="1.14516" cy="1.4937" rx="1.14516" ry="1.4937" transform="matrix(0.928648 0.370962 -0.475524 0.879703 7.05063 3.8186)" fill="black"/>
<path d="M12.1018 0.510047C10.2951 -0.450925 7.9274 -0.0116092 5.80979 1.47684C5.96255 1.60957 6.10513 1.75371 6.23557 1.90848C6.70824 1.58368 7.19046 1.3145 7.67307 1.1077C9.30273 0.409509 10.8669 0.42384 12.05 1.16923C13.2331 1.9147 13.9217 3.31963 13.9953 5.0911C14.0687 6.85951 13.5199 8.93243 12.3 10.8684C11.0802 12.8042 9.44726 14.1928 7.82053 14.8899C6.19077 15.5882 4.62672 15.5739 3.44358 14.8284C2.26055 14.0829 1.57285 12.6789 1.49924 10.9075C1.46203 10.0111 1.58541 9.03654 1.87424 8.0413C1.6843 7.96862 1.50164 7.8818 1.32736 7.78153C0.378559 10.9472 0.99935 13.9947 3.12522 15.3343L3.39084 15.4895C6.09737 16.9293 10.0663 15.228 12.5608 11.5599L12.8059 11.1868C15.3584 7.13562 15.1623 2.42379 12.3684 0.663368L12.1018 0.510047Z" fill="#22C65F"/>
<path d="M3.26217 1.72095L2.7104 3.8599L0.571449 4.41166L2.7104 4.96342L3.26217 7.10238L3.81393 4.96342L5.95288 4.41166L3.81393 3.8599L3.26217 1.72095Z" fill="#22C65F"/>
<defs>
<linearGradient id="paint0_linear_15_8938" x1="2.06635" y1="0" x2="2.06635" y2="5.29226" gradientUnits="userSpaceOnUse">
<stop stop-color="#E9EC0A"/>
<stop offset="1" stop-color="#6FFFEB"/>
</linearGradient>
<linearGradient id="paint1_linear_15_8938" x1="2.06635" y1="0" x2="2.06635" y2="5.29226" gradientUnits="userSpaceOnUse">
<stop stop-color="#E9EC0A"/>
<stop offset="1" stop-color="#6FFFEB"/>
</linearGradient>
</defs>
</svg>
