<svg width="25" height="24" viewBox="0 0 25 24" fill="none" xmlns="http://www.w3.org/2000/svg">
<path d="M14.402 3.50989L16.162 7.02989C16.402 7.51989 17.042 7.98989 17.582 8.07989L20.772 8.60989C22.812 8.94989 23.292 10.4299 21.822 11.8899L19.342 14.3699C18.922 14.7899 18.692 15.5999 18.822 16.1799L19.532 19.2499C20.092 21.6799 18.802 22.6199 16.652 21.3499L13.662 19.5799C13.122 19.2599 12.232 19.2599 11.682 19.5799L8.69204 21.3499C6.55204 22.6199 5.25204 21.6699 5.81204 19.2499L6.52204 16.1799C6.65204 15.5999 6.42204 14.7899 6.00204 14.3699L3.52204 11.8899C2.06204 10.4299 2.53204 8.94989 4.57204 8.60989L7.76204 8.07989C8.29204 7.98989 8.93204 7.51989 9.17204 7.02989L10.932 3.50989C11.892 1.59989 13.452 1.59989 14.402 3.50989Z" fill="#FF8F00"/>
</svg>
