<?xml version="1.0" standalone="no"?><!DOCTYPE svg PUBLIC "-//W3C//DTD SVG 1.1//EN" "http://www.w3.org/Graphics/SVG/1.1/DTD/svg11.dtd"><svg t="1773046143011" class="icon" viewBox="0 0 1024 1024" version="1.1" xmlns="http://www.w3.org/2000/svg" p-id="5375" data-spm-anchor-id="a313x.search_index.0.i5.17413a81iK9Tdg" xmlns:xlink="http://www.w3.org/1999/xlink" width="64" height="64"><path d="M512 970.1376a447.7952 447.7952 0 1 1 439.8592-361.216 30.72 30.72 0 1 1-60.2624-11.8784 392.5504 392.5504 0 0 0 7.2704-75.2128 386.2016 386.2016 0 1 0-286.2592 373.76 30.72 30.72 0 0 1 15.9232 59.3408 450.2016 450.2016 0 0 1-116.5312 15.2064z" fill="#ffffff" p-id="5376" data-spm-anchor-id="a313x.search_index.0.i4.17413a81iK9Tdg" class="selected"></path><path d="M649.4208 633.7024a30.72 30.72 0 0 0 0-61.44H544.256v-66.048h105.1648a30.72 30.72 0 0 0 0-61.44h-88.1664l88.32-67.328a30.72 30.72 0 1 0-37.2224-48.8448l-98.816 75.3152L414.72 328.6016a30.72 30.72 0 0 0-37.2736 48.8448L465.92 444.7744H377.6512a30.72 30.72 0 1 0 0 61.44H482.816v66.048H377.6512a30.72 30.72 0 0 0 0 61.44H482.816v65.2288a30.72 30.72 0 0 0 61.44 0v-65.2288zM891.4432 740.4032h-81.92v-81.92a30.72 30.72 0 0 0-61.44 0v81.92h-81.92a30.72 30.72 0 1 0 0 61.44h81.92v81.92a30.72 30.72 0 1 0 61.44 0v-81.92h81.92a30.72 30.72 0 0 0 0-61.44z" fill="#ea9518" p-id="5377" data-spm-anchor-id="a313x.search_index.0.i0.17413a81iK9Tdg" class="selected"></path></svg>