<svg width="25" height="24" viewBox="0 0 25 24" fill="none" xmlns="http://www.w3.org/2000/svg">
<path d="M19.6132 6.24998H20.9732C20.7832 5.97998 20.5832 5.72998 20.3732 5.47998L19.6132 6.24998Z" fill="#FF8F00"/>
<path d="M19.3232 4.42007C19.0732 4.21007 18.8232 4.01007 18.5532 3.82007V5.18007L19.3232 4.42007Z" fill="#FF8F00"/>
<path d="M20.3832 5.47994L23.3332 2.52994C23.6232 2.23994 23.6232 1.75994 23.3332 1.46994C23.0432 1.17994 22.5632 1.17994 22.2732 1.46994L19.3232 4.41994C19.7032 4.74994 20.0532 5.10994 20.3832 5.47994Z" fill="#FF8F00"/>
<path d="M18.5532 3C18.5532 2.59 18.2132 2.25 17.8032 2.25C17.4032 2.25 17.0832 2.57 17.0632 2.96C17.5832 3.21 18.0832 3.49 18.5532 3.82V3Z" fill="#FF8F00"/>
<path d="M22.5532 7C22.5532 6.59 22.2132 6.25 21.8032 6.25H20.9732C21.3032 6.72 21.5932 7.22 21.8332 7.74C22.2332 7.72 22.5532 7.4 22.5532 7Z" fill="#FF8F00"/>
<path d="M13.5532 14.75H13.8532C14.2432 14.75 14.5532 14.4 14.5532 13.97C14.5532 13.43 14.4032 13.35 14.0632 13.23L13.5532 13.05V14.75Z" fill="#FF8F00"/>
<path d="M21.8432 7.74C21.8332 7.74 21.8232 7.75 21.8032 7.75H17.8032C17.7032 7.75 17.6132 7.73 17.5132 7.69C17.3332 7.61 17.1832 7.47 17.1032 7.28C17.0732 7.19 17.0532 7.1 17.0532 7V3C17.0532 2.99 17.0632 2.98 17.0632 2.96C15.7632 2.35 14.3232 2 12.8032 2C7.28322 2 2.80322 6.48 2.80322 12C2.80322 17.52 7.28322 22 12.8032 22C18.3232 22 22.8032 17.52 22.8032 12C22.8032 10.48 22.4532 9.04 21.8432 7.74ZM14.5532 11.82C15.1932 12.04 16.0532 12.51 16.0532 13.98C16.0532 15.23 15.0632 16.26 13.8532 16.26H13.5532V16.51C13.5532 16.92 13.2132 17.26 12.8032 17.26C12.3932 17.26 12.0532 16.92 12.0532 16.51V16.26H11.9732C10.6432 16.26 9.55322 15.14 9.55322 13.76C9.55322 13.34 9.89322 13 10.3032 13C10.7132 13 11.0532 13.34 11.0532 13.75C11.0532 14.3 11.4632 14.75 11.9732 14.75H12.0532V12.53L11.0532 12.18C10.4132 11.96 9.55322 11.49 9.55322 10.02C9.55322 8.77 10.5432 7.74 11.7532 7.74H12.0532V7.5C12.0532 7.09 12.3932 6.75 12.8032 6.75C13.2132 6.75 13.5532 7.09 13.5532 7.5V7.75H13.6332C14.9632 7.75 16.0532 8.87 16.0532 10.25C16.0532 10.66 15.7132 11 15.3032 11C14.8932 11 14.5532 10.66 14.5532 10.25C14.5532 9.7 14.1432 9.25 13.6332 9.25H13.5532V11.47L14.5532 11.82Z" fill="#FF8F00"/>
<path d="M11.0532 10.03C11.0532 10.57 11.2032 10.65 11.5432 10.77L12.0532 10.95V9.25H11.7532C11.3732 9.25 11.0532 9.6 11.0532 10.03Z" fill="#FF8F00"/>
</svg>
