<svg width="25" height="24" viewBox="0 0 25 24" fill="none" xmlns="http://www.w3.org/2000/svg">
<path d="M21.2944 12.7301C20.9244 12.7301 20.6144 12.4501 20.5744 12.0801C20.3344 9.88007 19.1544 7.90007 17.3344 6.64007C17.0044 6.41007 16.9244 5.96007 17.1544 5.63007C17.3844 5.30007 17.8344 5.22007 18.1644 5.45007C20.3344 6.96007 21.7344 9.32007 22.0244 11.9301C22.0644 12.3301 21.7744 12.6901 21.3744 12.7301C21.3444 12.7301 21.3244 12.7301 21.2944 12.7301Z" fill="#FF8F00"/>
<path d="M4.6744 12.78C4.6544 12.78 4.6244 12.78 4.6044 12.78C4.2044 12.74 3.9144 12.38 3.9544 11.98C4.2244 9.36996 5.6044 7.00996 7.7544 5.48996C8.0744 5.25996 8.5344 5.33996 8.7644 5.65996C8.9944 5.98996 8.9144 6.43996 8.5944 6.66996C6.7944 7.94996 5.6244 9.92996 5.4044 12.12C5.3644 12.5 5.0444 12.78 4.6744 12.78Z" fill="#FF8F00"/>
<path d="M16.9244 21.1001C15.6944 21.6901 14.3744 21.9901 12.9944 21.9901C11.5544 21.9901 10.1844 21.6701 8.9044 21.0201C8.5444 20.8501 8.4044 20.4101 8.5844 20.0501C8.7544 19.6901 9.1944 19.5501 9.5544 19.7201C10.1844 20.0401 10.8544 20.2601 11.5344 20.3901C12.4544 20.5701 13.3944 20.5801 14.3144 20.4201C14.9944 20.3001 15.6644 20.0901 16.2844 19.7901C16.6544 19.6201 17.0944 19.7601 17.2544 20.1301C17.4344 20.4901 17.2944 20.9301 16.9244 21.1001Z" fill="#FF8F00"/>
<path d="M12.9844 2.01001C11.4344 2.01001 10.1644 3.27001 10.1644 4.83001C10.1644 6.39001 11.4244 7.65001 12.9844 7.65001C14.5444 7.65001 15.8044 6.39001 15.8044 4.83001C15.8044 3.27001 14.5444 2.01001 12.9844 2.01001Z" fill="#FF8F00"/>
<path d="M5.9844 13.8701C4.4344 13.8701 3.1644 15.1301 3.1644 16.6901C3.1644 18.2501 4.4244 19.5101 5.9844 19.5101C7.5444 19.5101 8.8044 18.2501 8.8044 16.6901C8.8044 15.1301 7.5344 13.8701 5.9844 13.8701Z" fill="#FF8F00"/>
<path d="M19.8844 13.8701C18.3344 13.8701 17.0644 15.1301 17.0644 16.6901C17.0644 18.2501 18.3244 19.5101 19.8844 19.5101C21.4444 19.5101 22.7044 18.2501 22.7044 16.6901C22.7044 15.1301 21.4444 13.8701 19.8844 13.8701Z" fill="#FF8F00"/>
</svg>
