<svg width="25" height="24" viewBox="0 0 25 24" fill="none" xmlns="http://www.w3.org/2000/svg">
<path d="M9.285 10.87C9.185 10.86 9.065 10.86 8.955 10.87C6.575 10.79 4.685 8.84 4.685 6.44C4.685 3.99 6.665 2 9.125 2C11.575 2 13.565 3.99 13.565 6.44C13.555 8.84 11.665 10.79 9.285 10.87Z" stroke="white" stroke-width="1.5" stroke-linecap="round" stroke-linejoin="round"/>
<path d="M16.535 4C18.475 4 20.035 5.57 20.035 7.5C20.035 9.39 18.535 10.93 16.665 11C16.585 10.99 16.495 10.99 16.405 11" stroke="white" stroke-width="1.5" stroke-linecap="round" stroke-linejoin="round"/>
<path d="M4.285 14.56C1.865 16.18 1.865 18.82 4.285 20.43C7.035 22.27 11.545 22.27 14.295 20.43C16.715 18.81 16.715 16.17 14.295 14.56C11.555 12.73 7.045 12.73 4.285 14.56Z" stroke="white" stroke-width="1.5" stroke-linecap="round" stroke-linejoin="round"/>
<path d="M18.465 20C19.185 19.85 19.865 19.56 20.425 19.13C21.985 17.96 21.985 16.03 20.425 14.86C19.875 14.44 19.205 14.16 18.495 14" stroke="white" stroke-width="1.5" stroke-linecap="round" stroke-linejoin="round"/>
</svg>
