<svg width="200" height="200" viewBox="0 0 200 200" fill="none" xmlns="http://www.w3.org/2000/svg">
<g clip-path="url(#clip0_730_2595)">
<rect width="200" height="200" rx="100" fill="white"/>
<path d="M65.8959 66.7629C62.4277 66.7629 58.9595 69.0751 58.9595 72.5433C58.9595 76.0115 62.4277 78.3236 65.8959 78.3236C69.3642 78.3236 71.6763 76.0115 71.6763 72.5433C71.6763 68.9306 69.3642 66.7629 65.8959 66.7629ZM112.861 100.289C110.549 100.289 108.381 102.746 108.381 104.913C108.381 107.37 110.694 109.538 112.861 109.538C116.329 109.538 118.642 107.225 118.642 104.913C118.642 102.601 116.329 100.289 112.861 100.289ZM97.9769 78.3236C101.445 78.3236 103.757 75.867 103.757 72.5433C103.757 69.0751 101.445 66.7629 97.9769 66.7629C94.5087 66.7629 91.0405 69.0751 91.0405 72.5433C91.0405 76.0115 94.5087 78.3236 97.9769 78.3236ZM138.006 100.289C135.694 100.289 133.526 102.746 133.526 104.913C133.526 107.37 135.838 109.538 138.006 109.538C141.474 109.538 143.786 107.225 143.786 104.913C143.786 102.601 141.474 100.289 138.006 100.289Z" fill="#28C445"/>
<path d="M99.711 0.578125C44.6532 0.578125 0 45.2313 0 100.289C0 155.347 44.6532 200 99.711 200C154.769 200 199.422 155.347 199.422 100.289C199.422 45.2313 154.769 0.578125 99.711 0.578125ZM80.7803 125.867C75 125.867 70.3757 124.711 64.8844 123.41L48.9884 131.503L53.4682 117.486C42.052 109.393 35.1156 98.844 35.1156 86.2718C35.1156 64.1619 55.7803 46.8209 80.7803 46.8209C103.179 46.8209 122.977 60.6937 126.879 79.3354C125.434 79.1908 123.988 79.0463 122.543 79.0463C100.867 79.3354 83.815 95.6648 83.815 115.896C83.815 119.22 84.3931 122.399 85.2601 125.578C83.815 125.723 82.2254 125.867 80.7803 125.867ZM148.41 142.052L151.879 153.613L139.451 146.676C134.971 147.832 130.347 148.989 125.723 148.989C103.902 148.989 86.7052 133.96 86.7052 115.318C86.5607 96.8209 103.757 81.792 125.434 81.792C146.098 81.792 164.306 96.9654 164.306 115.463C164.306 125.867 157.514 135.116 148.41 142.052Z" fill="#28C445"/>
</g>
<defs>
<clipPath id="clip0_730_2595">
<rect width="200" height="200" rx="100" fill="white"/>
</clipPath>
</defs>
</svg>
