<svg width="25" height="24" viewBox="0 0 25 24" fill="none" xmlns="http://www.w3.org/2000/svg">
<path d="M15.3908 3.95005V7.75005H13.8908V3.95005C13.8908 3.68005 13.6508 3.55005 13.4908 3.55005C13.4408 3.55005 13.3908 3.56005 13.3408 3.58005L5.41085 6.57005C4.88085 6.77005 4.54085 7.27005 4.54085 7.84005V8.51005C3.63085 9.19005 3.04085 10.28 3.04085 11.51V7.84005C3.04085 6.65005 3.77085 5.59005 4.88085 5.17005L12.8208 2.17005C13.0408 2.09005 13.2708 2.05005 13.4908 2.05005C14.4908 2.05005 15.3908 2.86005 15.3908 3.95005Z" fill="#FF8F00"/>
<path d="M22.0409 14.5V15.5C22.0409 15.77 21.8309 15.99 21.5509 16H20.0908C19.5608 16 19.0809 15.61 19.0409 15.09C19.0109 14.78 19.1309 14.49 19.3309 14.29C19.5109 14.1 19.7609 14 20.0309 14H21.5409C21.8309 14.01 22.0409 14.23 22.0409 14.5Z" fill="#FF8F00"/>
<path d="M20.0208 12.95H21.0408C21.5908 12.95 22.0408 12.5 22.0408 11.95V11.51C22.0408 9.44 20.3508 7.75 18.2808 7.75H6.80085C5.95085 7.75 5.17085 8.03 4.54085 8.51C3.63085 9.19 3.04085 10.28 3.04085 11.51V18.24C3.04085 20.31 4.73085 22 6.80085 22H18.2808C20.3508 22 22.0408 20.31 22.0408 18.24V18.05C22.0408 17.5 21.5908 17.05 21.0408 17.05H20.1708C19.2108 17.05 18.2908 16.46 18.0408 15.53C17.8308 14.77 18.0808 14.04 18.5808 13.55C18.9508 13.17 19.4608 12.95 20.0208 12.95ZM14.5408 12.75H7.54085C7.13085 12.75 6.79085 12.41 6.79085 12C6.79085 11.59 7.13085 11.25 7.54085 11.25H14.5408C14.9508 11.25 15.2908 11.59 15.2908 12C15.2908 12.41 14.9508 12.75 14.5408 12.75Z" fill="#FF8F00"/>
</svg>
