<svg width="25" height="24" viewBox="0 0 25 24" fill="none" xmlns="http://www.w3.org/2000/svg">
<path d="M3.375 9.10986V14.8799C3.375 16.9999 3.375 16.9999 5.375 18.3499L10.875 21.5299C11.705 22.0099 13.055 22.0099 13.875 21.5299L19.375 18.3499C21.375 16.9999 21.375 16.9999 21.375 14.8899V9.10986C21.375 6.99986 21.375 6.99986 19.375 5.64986L13.875 2.46986C13.055 1.98986 11.705 1.98986 10.875 2.46986L5.375 5.64986C3.375 6.99986 3.375 6.99986 3.375 9.10986Z" stroke="white" stroke-width="1.5" stroke-linecap="round" stroke-linejoin="round"/>
<path d="M12.375 15C14.0319 15 15.375 13.6569 15.375 12C15.375 10.3431 14.0319 9 12.375 9C10.7181 9 9.375 10.3431 9.375 12C9.375 13.6569 10.7181 15 12.375 15Z" stroke="white" stroke-width="1.5" stroke-linecap="round" stroke-linejoin="round"/>
</svg>
