<svg width="21" height="20" viewBox="0 0 21 20" fill="none" xmlns="http://www.w3.org/2000/svg">
<path d="M17.6917 7.14999V12.85C17.6917 13.7833 17.1917 14.65 16.3833 15.125L11.4333 17.9833C10.625 18.45 9.62499 18.45 8.80832 17.9833L3.85832 15.125C3.04999 14.6583 2.54999 13.7916 2.54999 12.85V7.14999C2.54999 6.21665 3.04999 5.34995 3.85832 4.87495L8.80832 2.01663C9.61666 1.54996 10.6167 1.54996 11.4333 2.01663L16.3833 4.87495C17.1917 5.34995 17.6917 6.20832 17.6917 7.14999Z" stroke="white" stroke-width="1.5" stroke-linecap="round" stroke-linejoin="round"/>
<path d="M10.125 9.16664C11.1973 9.16664 12.0667 8.29731 12.0667 7.22496C12.0667 6.1526 11.1973 5.28333 10.125 5.28333C9.05263 5.28333 8.18332 6.1526 8.18332 7.22496C8.18332 8.29731 9.05263 9.16664 10.125 9.16664Z" stroke="white" stroke-width="1.5" stroke-linecap="round" stroke-linejoin="round"/>
<path d="M13.4583 13.8833C13.4583 12.3833 11.9667 11.1666 10.125 11.1666C8.28332 11.1666 6.79166 12.3833 6.79166 13.8833" stroke="white" stroke-width="1.5" stroke-linecap="round" stroke-linejoin="round"/>
</svg>
