<svg width="200" height="200" viewBox="0 0 200 200" fill="none" xmlns="http://www.w3.org/2000/svg">
<g clip-path="url(#clip0_731_2602)">
<rect width="200" height="200" rx="100" fill="white"/>
<path d="M100 200C44.77 200 0 155.23 0 100C0 44.77 44.77 0 100 0C155.23 0 200 44.77 200 100C200 155.23 155.23 200 100 200ZM45.715 78.46H155.715V66.155C155.715 62.755 152.635 60 148.84 60H52.59C48.79 60 45.715 62.755 45.715 66.15V78.46ZM155.715 84.615H45.715V133.845C45.715 137.245 48.79 140 52.59 140H148.84C152.64 140 155.715 137.245 155.715 133.85V84.615ZM104.15 115.385C102.25 115.385 100.715 114.005 100.715 112.31C100.715 110.61 102.255 109.23 104.15 109.23H111.025C112.925 109.23 114.465 110.61 114.465 112.31C114.465 114.01 112.925 115.385 111.025 115.385H104.15ZM56.025 127.69C54.125 127.69 52.59 126.315 52.59 124.615C52.59 122.915 54.13 121.54 56.025 121.54H83.525C85.425 121.54 86.965 122.915 86.965 124.615C86.965 126.315 85.425 127.69 83.525 127.69H56.025ZM56.025 115.385C54.125 115.385 52.59 114.005 52.59 112.31C52.59 110.61 54.13 109.23 56.025 109.23H90.4C92.3 109.23 93.84 110.61 93.84 112.31C93.84 114.01 92.3 115.385 90.4 115.385H56.025Z" fill="#F72277"/>
</g>
<defs>
<clipPath id="clip0_731_2602">
<rect width="200" height="200" rx="100" fill="white"/>
</clipPath>
</defs>
</svg>
