<svg width="60" height="60" viewBox="0 0 60 60" fill="none" xmlns="http://www.w3.org/2000/svg">
<g clip-path="url(#clip0_34_9561)">
<rect width="60" height="60" rx="30" fill="#F2F4FF"/>
<g clip-path="url(#clip1_34_9561)">
<path d="M0 30.3491C0 46.8491 13.5 60.3491 30 60.3491C46.5 60.3491 60 46.8491 60 30.3491C60 13.8491 46.5 0.349121 30 0.349121C13.5 0.349121 0 13.8491 0 30.3491Z" fill="#F2F4FE"/>
<path d="M30 60.3493C38.25 60.3493 45.4998 57.0991 51 51.8491C50.5002 50.0989 49.9998 48.5989 49.5 47.8489C46.9998 44.8489 36.4998 43.5991 36.4998 43.5991L30 45.3493L23.7498 43.5991C23.7498 43.5991 13.2498 45.0991 10.7496 47.8489C10.2498 48.5989 9.74942 50.0989 9.24961 51.8491C14.5002 57.0991 21.75 60.3493 30 60.3493Z" fill="#B0B7C8"/>
<path d="M16.5 27.0989C16.5 25.3487 17.25 23.8487 18.4998 23.8487C19.7496 23.8487 21 24.8489 21.2496 26.5985C21.4998 28.3487 20.4996 29.8487 19.2498 29.8487C18 29.8487 16.5 28.8491 16.5 27.0989ZM25.0002 37.0991V45.8489H35.0004V37.0991H25.0002ZM40.9998 29.8493C39.75 29.8493 38.7498 28.0991 39 26.5991C39.2502 24.8489 40.5 23.5991 41.7498 23.8493C42.9996 23.8493 43.9998 25.5995 43.7496 27.0995C43.5 28.8491 42.2502 30.0989 40.9998 29.8493Z" fill="#FBFEFF"/>
<path d="M36.4998 14.5993C33.4998 13.0993 30 12.8491 30 12.8491C29.5002 12.8491 19.2498 13.3489 19.2498 19.0993V30.8491C19.2498 33.0991 22.7496 39.5989 26.25 39.8491H30C30 39.8491 32.25 39.5989 33.75 39.5989C37.0002 39.3487 40.7502 32.8489 40.7502 30.5989V19.3489C40.7502 17.0995 39 15.3493 36.4998 14.5993Z" fill="white"/>
<path d="M23.5002 43.0991L29.25 60.3491H31.0002L36.75 43.0991L30 44.5991L23.5002 43.0991Z" fill="white"/>
<path d="M30.7693 48.3491L32.2693 46.8491L30.0193 44.5991L27.7693 46.8491L29.2693 48.3491L27.5191 57.0989L30.0193 59.5991L32.7691 57.0989L30.7693 48.3491Z" fill="#A0AAC3"/>
<path d="M30 44.5989L35.25 41.8491L37.9998 43.3491L33.6799 49.5993L30 44.5989ZM30 44.5989L24.75 41.8491L22.0002 43.3491L26.5586 49.5993L30 44.5989Z" fill="white"/>
<path d="M41.25 26.0992H40.2498L39 16.5989C39 16.5989 42 15.3491 42.75 19.0991C43.5 22.8491 41.25 26.0992 41.25 26.0992ZM18.2502 26.0992H19.2504L20.5002 16.5994C20.5002 16.5994 17.5002 15.3496 16.7502 19.0996C16.2498 22.8491 18.2502 26.0992 18.2502 26.0992Z" fill="#B0B7C8"/>
<path d="M30 20.8494C36 20.8494 40.2498 20.0994 43.0002 14.8494C43.0002 14.8494 40.2504 14.0994 34.0002 11.5992C24.2502 7.59897 16.2504 14.0994 19.0002 18.5994C19.7502 20.0994 24 20.8494 30 20.8494Z" fill="#B0B7C8"/>
</g>
</g>
<rect x="0.5" y="0.5" width="59" height="59" rx="29.5" stroke="white"/>
<defs>
<clipPath id="clip0_34_9561">
<rect width="60" height="60" rx="30" fill="white"/>
</clipPath>
<clipPath id="clip1_34_9561">
<rect width="60" height="60" fill="white" transform="translate(0 0.349121)"/>
</clipPath>
</defs>
</svg>
