<svg width="24" height="24" viewBox="0 0 24 24" fill="none" xmlns="http://www.w3.org/2000/svg">
  <path d="M22.5 12.5C22.5 18.3 18.3 22.5 12.5 22.5C6.7 22.5 2.5 18.3 2.5 12.5C2.5 6.7 6.7 2.5 12.5 2.5C18.3 2.5 22.5 6.7 22.5 12.5Z" fill="#1677FF"/>
  <path d="M7 8.5C7 8.5 7.7 8.2 8.5 8.2C9.3 8.2 10 8.5 10 9C10 9.5 9.3 9.8 8.5 9.8C7.7 9.8 7 9.5 7 9C7 8.8 7 8.5 7 8.5Z" fill="white"/>
  <path d="M15 8.5C15 8.5 15.7 8.2 16.5 8.2C17.3 8.2 18 8.5 18 9C18 9.5 17.3 9.8 16.5 9.8C15.7 9.8 15 9.5 15 9C15 8.8 15 8.5 15 8.5Z" fill="white"/>
  <path d="M12.5 16.5C12.5 16.5 11.8 16.2 11 16.2C10.2 16.2 9.5 16.5 9.5 17C9.5 17.5 10.2 17.8 11 17.8C11.8 17.8 12.5 17.5 12.5 17C12.5 16.8 12.5 16.5 12.5 16.5Z" fill="white"/>
  <path d="M12.5 12.5C12.5 12.5 13.2 12.2 14 12.2C14.8 12.2 15.5 12.5 15.5 13C15.5 13.5 14.8 13.8 14 13.8C13.2 13.8 12.5 13.5 12.5 13C12.5 12.8 12.5 12.5 12.5 12.5Z" fill="white"/>
  <path d="M12.5 12.5C12.5 12.5 12.2 12.3 11.8 12.3C11.4 12.3 10.8 12.5 10.8 13C10.8 13.5 11.2 13.7 11.6 13.7C12 13.7 12.5 13.5 12.5 13C12.5 12.8 12.5 12.5 12.5 12.5Z" fill="white"/>
</svg> 