<svg width="25" height="24" viewBox="0 0 25 24" fill="none" xmlns="http://www.w3.org/2000/svg">
<path d="M11.125 2H9.125C4.125 2 2.125 4 2.125 9V15C2.125 20 4.125 22 9.125 22H15.125C20.125 22 22.125 20 22.125 15V13" stroke="white" stroke-width="1.5" stroke-linecap="round" stroke-linejoin="round"/>
<path d="M16.165 3.01976L8.285 10.8998C7.985 11.1998 7.685 11.7898 7.625 12.2198L7.195 15.2298C7.035 16.3198 7.805 17.0798 8.895 16.9298L11.905 16.4998C12.325 16.4398 12.915 16.1398 13.225 15.8398L21.105 7.95976C22.465 6.59976 23.105 5.01976 21.105 3.01976C19.105 1.01976 17.525 1.65976 16.165 3.01976Z" stroke="white" stroke-width="1.5" stroke-miterlimit="10" stroke-linecap="round" stroke-linejoin="round"/>
<path d="M15.035 4.1499C15.705 6.5399 17.575 8.4099 19.975 9.0899" stroke="white" stroke-width="1.5" stroke-miterlimit="10" stroke-linecap="round" stroke-linejoin="round"/>
</svg>
