<svg width="25" height="24" viewBox="0 0 25 24" fill="none" xmlns="http://www.w3.org/2000/svg">
<path d="M11.115 2.23006L6.125 4.11006C4.975 4.54006 4.035 5.90006 4.035 7.12006V14.5501C4.035 15.7301 4.815 17.2801 5.765 17.9901L10.065 21.2001C11.475 22.2601 13.795 22.2601 15.205 21.2001L19.505 17.9901C20.455 17.2801 21.235 15.7301 21.235 14.5501V7.12006C21.235 5.89006 20.295 4.53006 19.145 4.10006L14.155 2.23006C13.305 1.92006 11.945 1.92006 11.115 2.23006Z" stroke="white" stroke-width="1.5" stroke-linecap="round" stroke-linejoin="round"/>
<path d="M12.625 12.5C13.7296 12.5 14.625 11.6046 14.625 10.5C14.625 9.39543 13.7296 8.5 12.625 8.5C11.5204 8.5 10.625 9.39543 10.625 10.5C10.625 11.6046 11.5204 12.5 12.625 12.5Z" stroke="white" stroke-width="1.5" stroke-miterlimit="10" stroke-linecap="round" stroke-linejoin="round"/>
<path d="M12.625 12.5V15.5" stroke="white" stroke-width="1.5" stroke-miterlimit="10" stroke-linecap="round" stroke-linejoin="round"/>
</svg>
