<svg width="25" height="24" viewBox="0 0 25 24" fill="none" xmlns="http://www.w3.org/2000/svg">
<mask id="mask0_2_5954" style="mask-type:luminance" maskUnits="userSpaceOnUse" x="1" y="4" width="23" height="16">
<path d="M12.5 16C15.8137 16 18.5 13.3137 18.5 10C18.5 6.68629 15.8137 4 12.5 4C9.18629 4 6.5 6.68629 6.5 10C6.5 13.3137 9.18629 16 12.5 16Z" fill="white"/>
<path d="M17.5 13H8.5V20H17.5V13Z" fill="white"/>
<path d="M10.5 8H7.5C4.18629 8 1.5 10.6863 1.5 14C1.5 17.3137 4.18629 20 7.5 20H10.5C13.8137 20 16.5 17.3137 16.5 14C16.5 10.6863 13.8137 8 10.5 8Z" fill="white"/>
<path d="M18.5 10H15.5C12.7386 10 10.5 12.2386 10.5 15C10.5 17.7614 12.7386 20 15.5 20H18.5C21.2614 20 23.5 17.7614 23.5 15C23.5 12.2386 21.2614 10 18.5 10Z" fill="white"/>
<path d="M14.5 9H10.5V14H14.5V9Z" fill="black"/>
<path d="M12.5 18L17.5 13H7.5L12.5 18Z" fill="black"/>
</mask>
<g mask="url(#mask0_2_5954)">
<path d="M24.5 0H0.5V24H24.5V0Z" fill="#FF8F00"/>
</g>
</svg>
