<svg width="25" height="24" viewBox="0 0 25 24" fill="none" xmlns="http://www.w3.org/2000/svg">
<path d="M19.875 9C19.875 10.45 19.445 11.78 18.705 12.89C17.625 14.49 15.915 15.62 13.925 15.91C13.585 15.97 13.235 16 12.875 16C12.515 16 12.165 15.97 11.825 15.91C9.835 15.62 8.125 14.49 7.045 12.89C6.305 11.78 5.875 10.45 5.875 9C5.875 5.13 9.005 2 12.875 2C16.745 2 19.875 5.13 19.875 9Z" stroke="white" stroke-width="1.5" stroke-linecap="round" stroke-linejoin="round"/>
<path d="M22.125 18.4699L20.475 18.8599C20.105 18.9499 19.815 19.2299 19.735 19.5999L19.385 21.0699C19.195 21.8699 18.175 22.1099 17.645 21.4799L12.875 15.9999L8.105 21.4899C7.575 22.1199 6.555 21.8799 6.365 21.0799L6.015 19.6099C5.925 19.2399 5.635 18.9499 5.275 18.8699L3.625 18.4799C2.865 18.2999 2.595 17.3499 3.145 16.7999L7.045 12.8999C8.125 14.4999 9.835 15.6299 11.825 15.9199C12.165 15.9799 12.515 16.0099 12.875 16.0099C13.235 16.0099 13.585 15.9799 13.925 15.9199C15.915 15.6299 17.625 14.4999 18.705 12.8999L22.605 16.7999C23.155 17.3399 22.885 18.2899 22.125 18.4699Z" stroke="white" stroke-width="1.5" stroke-linecap="round" stroke-linejoin="round"/>
<path d="M13.455 5.98L14.045 7.15999C14.125 7.31999 14.335 7.48 14.525 7.51L15.595 7.68999C16.275 7.79999 16.435 8.3 15.945 8.79L15.115 9.61998C14.975 9.75998 14.895 10.03 14.945 10.23L15.185 11.26C15.375 12.07 14.945 12.39 14.225 11.96L13.225 11.37C13.045 11.26 12.745 11.26 12.565 11.37L11.565 11.96C10.845 12.38 10.415 12.07 10.605 11.26L10.845 10.23C10.885 10.04 10.815 9.75998 10.675 9.61998L9.845 8.79C9.355 8.3 9.515 7.80999 10.195 7.68999L11.265 7.51C11.445 7.48 11.655 7.31999 11.735 7.15999L12.325 5.98C12.615 5.34 13.135 5.34 13.455 5.98Z" stroke="white" stroke-width="1.5" stroke-linecap="round" stroke-linejoin="round"/>
</svg>
