<svg width="24" height="24" viewBox="0 0 24 24" fill="none" xmlns="http://www.w3.org/2000/svg">
  <path d="M8.691 2.188C3.891 2.188 0 5.335 0 9.233c0 2.286 1.25 4.325 3.2 5.7l-.8 2.4 2.8-1.4c.8.2 1.6.3 2.4.3.2 0 .4 0 .6-.1-.1-.3-.2-.6-.2-.9 0-1.8 1.8-3.3 4-3.3.2 0 .4 0 .6.1.4-1.2.6-2.5.6-3.8 0-3.9-3.1-7.033-7.109-7.033z" fill="#07C160"/>
  <path d="M15.5 12.5c0-2.8 2.2-5 5-5s5 2.2 5 5-2.2 5-5 5c-.8 0-1.6-.2-2.3-.5l-1.7.9.5-1.4c-1.2-.8-2-2.1-2-3.5z" fill="#07C160"/>
  <circle cx="7" cy="9" r="1" fill="white"/>
  <circle cx="11" cy="9" r="1" fill="white"/>
  <circle cx="18" cy="12" r="1" fill="white"/>
  <circle cx="22" cy="12" r="1" fill="white"/>
</svg> 