<svg width="34" height="29" viewBox="0 0 34 29" fill="none" xmlns="http://www.w3.org/2000/svg">
<g filter="url(#filter0_i_21_527)">
<path d="M15.0227 13.4545L11.0284 9.46026C10.0588 8.4906 8.48667 8.49061 7.51701 9.46026L4.75571 12.2216C3.78606 13.1912 3.78606 14.7633 4.75571 15.733L13.267 24.2443C14.2367 25.2139 15.8088 25.2139 16.7784 24.2443L29.9943 11.0284C30.9639 10.0588 30.9639 8.48667 29.9943 7.51701L27.233 4.75571C26.2633 3.78606 24.6912 3.78606 23.7216 4.75571L15.0227 13.4545Z" fill="#F09034"/>
</g>
<path d="M22.7744 3.51562C24.3582 2.08431 26.8035 2.13185 28.3301 3.6582L31.0918 6.41992L31.2344 6.57031C32.6195 8.10321 32.6196 10.4428 31.2344 11.9756L31.0918 12.126L17.876 25.3418C16.3495 26.8683 13.9042 26.9155 12.3203 25.4844L12.1699 25.3418L3.6582 16.8301C2.08272 15.2544 2.08259 12.6996 3.6582 11.124L6.41992 8.36328L6.57031 8.21973C8.15419 6.78878 10.5996 6.83687 12.126 8.36328L15.0225 11.2598L22.624 3.6582L22.7744 3.51562Z" stroke="black" stroke-width="3.10369"/>
<defs>
<filter id="filter0_i_21_527" x="0.924805" y="0.924805" width="32.9004" height="27.1504" filterUnits="userSpaceOnUse" color-interpolation-filters="sRGB">
<feFlood flood-opacity="0" result="BackgroundImageFix"/>
<feBlend mode="normal" in="SourceGraphic" in2="BackgroundImageFix" result="shape"/>
<feColorMatrix in="SourceAlpha" type="matrix" values="0 0 0 0 0 0 0 0 0 0 0 0 0 0 0 0 0 0 127 0" result="hardAlpha"/>
<feOffset dy="6.20739"/>
<feComposite in2="hardAlpha" operator="arithmetic" k2="-1" k3="1"/>
<feColorMatrix type="matrix" values="0 0 0 0 0.956863 0 0 0 0 0.709804 0 0 0 0 0.282353 0 0 0 1 0"/>
<feBlend mode="normal" in2="shape" result="effect1_innerShadow_21_527"/>
</filter>
</defs>
</svg>
