<svg width="25" height="24" viewBox="0 0 25 24" fill="none" xmlns="http://www.w3.org/2000/svg">
<path d="M13.625 15.9201H14.275C14.925 15.9201 15.465 15.3401 15.465 14.6401C15.465 13.7701 15.155 13.6001 14.645 13.4201L13.635 13.0701V15.9201H13.625Z" fill="#FF8F00"/>
<path d="M12.845 1.89992C7.325 1.91992 2.855 6.40992 2.875 11.9299C2.895 17.4499 7.385 21.9199 12.905 21.8999C18.425 21.8799 22.895 17.3899 22.875 11.8699C22.855 6.34992 18.365 1.88992 12.845 1.89992ZM15.135 11.9999C15.915 12.2699 16.965 12.8499 16.965 14.6399C16.965 16.1799 15.755 17.4199 14.275 17.4199H13.625V17.9999C13.625 18.4099 13.285 18.7499 12.875 18.7499C12.465 18.7499 12.125 18.4099 12.125 17.9999V17.4199H11.765C10.125 17.4199 8.795 16.0399 8.795 14.3399C8.795 13.9299 9.135 13.5899 9.545 13.5899C9.955 13.5899 10.295 13.9299 10.295 14.3399C10.295 15.2099 10.955 15.9199 11.765 15.9199H12.125V12.5399L10.615 11.9999C9.835 11.7299 8.785 11.1499 8.785 9.35992C8.785 7.81992 9.995 6.57992 11.475 6.57992H12.125V5.99992C12.125 5.58992 12.465 5.24992 12.875 5.24992C13.285 5.24992 13.625 5.58992 13.625 5.99992V6.57992H13.985C15.625 6.57992 16.955 7.95992 16.955 9.65992C16.955 10.0699 16.615 10.4099 16.205 10.4099C15.795 10.4099 15.455 10.0699 15.455 9.65992C15.455 8.78992 14.795 8.07992 13.985 8.07992H13.625V11.4599L15.135 11.9999Z" fill="#FF8F00"/>
<path d="M10.295 9.37008C10.295 10.2401 10.605 10.4101 11.115 10.5901L12.125 10.9401V8.08008H11.475C10.825 8.08008 10.295 8.66008 10.295 9.37008Z" fill="#FF8F00"/>
</svg>
