<svg width="25" height="24" viewBox="0 0 25 24" fill="none" xmlns="http://www.w3.org/2000/svg">
<path d="M18.915 13.55C18.495 13.96 18.255 14.55 18.315 15.18C18.405 16.26 19.395 17.05 20.475 17.05H22.375V18.24C22.375 20.31 20.685 22 18.615 22H7.135C5.065 22 3.375 20.31 3.375 18.24V11.51C3.375 9.44001 5.065 7.75 7.135 7.75H18.615C20.685 7.75 22.375 9.44001 22.375 11.51V12.95H20.355C19.795 12.95 19.285 13.17 18.915 13.55Z" stroke="white" stroke-width="1.5" stroke-linecap="round" stroke-linejoin="round"/>
<path d="M3.375 12.4098V7.83986C3.375 6.64986 4.105 5.58982 5.215 5.16982L13.155 2.16982C14.395 1.69982 15.725 2.61985 15.725 3.94985V7.74983" stroke="white" stroke-width="1.5" stroke-linecap="round" stroke-linejoin="round"/>
<path d="M23.4338 13.9702V16.0302C23.4338 16.5802 22.9938 17.0302 22.4338 17.0502H20.4738C19.3938 17.0502 18.4038 16.2602 18.3138 15.1802C18.2538 14.5502 18.4938 13.9602 18.9138 13.5502C19.2838 13.1702 19.7938 12.9502 20.3538 12.9502H22.4338C22.9938 12.9702 23.4338 13.4202 23.4338 13.9702Z" stroke="white" stroke-width="1.5" stroke-linecap="round" stroke-linejoin="round"/>
<path d="M7.875 12H14.875" stroke="white" stroke-width="1.5" stroke-linecap="round" stroke-linejoin="round"/>
</svg>
