<svg width="25" height="24" viewBox="0 0 25 24" fill="none" xmlns="http://www.w3.org/2000/svg">
<path d="M2.875 18.65C2.465 18.65 2.125 18.31 2.125 17.9V12.2C2.075 9.49005 3.085 6.93005 4.965 5.01005C6.845 3.10005 9.365 2.05005 12.075 2.05005C17.615 2.05005 22.125 6.56005 22.125 12.1V17.8C22.125 18.21 21.785 18.55 21.375 18.55C20.965 18.55 20.625 18.21 20.625 17.8V12.1C20.625 7.39005 16.795 3.55005 12.075 3.55005C9.765 3.55005 7.625 4.44005 6.035 6.06005C4.435 7.69005 3.585 9.86005 3.625 12.18V17.89C3.625 18.31 3.295 18.65 2.875 18.65Z" fill="#FF8F00"/>
<path d="M6.065 12.45H5.935C3.835 12.45 2.125 14.16 2.125 16.26V18.14C2.125 20.24 3.835 21.95 5.935 21.95H6.065C8.165 21.95 9.875 20.24 9.875 18.14V16.26C9.875 14.16 8.165 12.45 6.065 12.45Z" fill="#FF8F00"/>
<path d="M18.315 12.45H18.185C16.085 12.45 14.375 14.16 14.375 16.26V18.14C14.375 20.24 16.085 21.95 18.185 21.95H18.315C20.415 21.95 22.125 20.24 22.125 18.14V16.26C22.125 14.16 20.415 12.45 18.315 12.45Z" fill="#FF8F00"/>
</svg>
