<svg width="33" height="33" viewBox="0 0 33 33" fill="none" xmlns="http://www.w3.org/2000/svg">
<path d="M0.475254 8.13672C0.475254 3.71844 4.05698 0.136719 8.47525 0.136719H24.4753C28.8935 0.136719 32.4753 3.71844 32.4753 8.13672V24.1367C32.4753 28.555 28.8935 32.1367 24.4753 32.1367H8.47525C4.05698 32.1367 0.475254 28.555 0.475254 24.1367V8.13672Z" fill="url(#paint0_linear_972_2615)"/>
<path d="M23.9853 9.98672L18.0453 6.55672C17.0753 5.99672 15.8753 5.99672 14.8953 6.55672L8.96526 9.98672C7.99526 10.5467 7.39526 11.5867 7.39526 12.7167V19.5567C7.39526 20.6767 7.99526 21.7167 8.96526 22.2867L14.9053 25.7167C15.8753 26.2767 17.0753 26.2767 18.0553 25.7167L23.9953 22.2867C24.9653 21.7267 25.5653 20.6867 25.5653 19.5567V12.7167C25.5553 11.5867 24.9553 10.5567 23.9853 9.98672ZM16.4753 11.4767C17.7653 11.4767 18.8053 12.5167 18.8053 13.8067C18.8053 15.0967 17.7653 16.1367 16.4753 16.1367C15.1853 16.1367 14.1453 15.0967 14.1453 13.8067C14.1453 12.5267 15.1853 11.4767 16.4753 11.4767ZM19.1553 20.7967H13.7953C12.9853 20.7967 12.5153 19.8967 12.9653 19.2267C13.6453 18.2167 14.9653 17.5367 16.4753 17.5367C17.9853 17.5367 19.3053 18.2167 19.9853 19.2267C20.4353 19.8867 19.9553 20.7967 19.1553 20.7967Z" fill="white"/>
<defs>
<linearGradient id="paint0_linear_972_2615" x1="0.475254" y1="0.136719" x2="27.9753" y2="32.1367" gradientUnits="userSpaceOnUse">
<stop stop-color="#F0C238"/>
<stop offset="1" stop-color="#F05440"/>
</linearGradient>
</defs>
</svg>
