<svg width="33" height="32" viewBox="0 0 33 32" fill="none" xmlns="http://www.w3.org/2000/svg">
<path d="M2.875 16C2.875 19.713 4.35 23.274 6.9755 25.8995C9.60101 28.525 13.162 30 16.875 30C20.588 30 24.149 28.525 26.7745 25.8995C29.4 23.274 30.875 19.713 30.875 16C30.875 12.287 29.4 8.72601 26.7745 6.1005C24.149 3.475 20.588 2 16.875 2C13.162 2 9.60101 3.475 6.9755 6.1005C4.35 8.72601 2.875 12.287 2.875 16Z" fill="#FF8F00"/>
<path d="M24.8046 21H16.619V11.1104C17.3847 10.3995 18.3901 10.0031 19.435 10C21.8094 10 23.739 12.0464 23.7822 14.5888C24.1022 14.4656 24.4478 14.4 24.8062 14.4C26.5022 14.4 27.8766 15.8768 27.8766 17.7008C27.8766 19.5232 26.5022 21 24.8062 21H24.8046ZM15.875 12H14.875V21H15.875V12ZM12.875 13H13.875V21H12.875V13ZM11.875 15H10.875V21H11.875V15ZM8.875 14H9.875V21H8.875V14ZM7.875 16H6.875V21H7.875V16Z" fill="white"/>
<path d="M16.875 30.4001C20.6941 30.4001 24.3568 28.883 27.0573 26.1824C29.7579 23.4819 31.275 19.8192 31.275 16.0001C31.275 12.181 29.7579 8.51828 27.0573 5.81776C24.3568 3.11724 20.6941 1.6001 16.875 1.6001C13.0559 1.6001 9.39318 3.11724 6.69266 5.81776C3.99214 8.51828 2.475 12.181 2.475 16.0001C2.475 19.8192 3.99214 23.4819 6.69266 26.1824C9.39318 28.883 13.0559 30.4001 16.875 30.4001Z" fill="#FF8F00"/>
<path d="M22.635 14.6753C21.9918 14.4113 21.1902 14.4513 21.1902 14.4513C21.1902 14.4513 21.731 13.9009 21.8926 13.4545C22.0526 13.0065 22.0286 12.3857 21.9694 12.0769C21.9102 11.7665 21.6206 10.4801 20.4446 10.0081C19.5374 9.64487 18.6094 9.65127 17.4254 9.88967L16.7374 7.32007L15.1742 7.73927L15.8558 10.2785L14.6654 10.5985L13.9854 8.05767L12.4238 8.47687L13.1038 11.0161L10.0318 11.8385L10.4718 13.4849L11.3758 13.2417C11.6206 13.1777 12.067 13.0865 12.3102 13.2481C12.5518 13.4081 12.6142 13.5121 12.7262 13.9217L14.4798 20.4801C14.5214 20.6353 14.5438 20.8353 14.4462 20.9969C14.3502 21.1569 14.2254 21.2225 13.9118 21.3073L12.9774 21.5569L13.1662 23.5457L16.2382 22.7233L16.9166 25.2545L18.4798 24.8369L17.7998 22.3041C18.2798 22.1761 18.699 22.0641 18.9902 21.9841L19.6686 24.5185L21.2302 24.0993L20.5422 21.5249C20.939 21.3937 21.307 21.2609 21.5182 21.1729C21.947 20.9953 22.923 20.6065 23.6862 19.6881C24.4494 18.7697 24.3806 17.6689 24.1214 16.6113C23.8622 15.5553 23.2734 14.9409 22.6334 14.6769L22.635 14.6753ZM15.1438 12.3921C15.1438 12.3921 15.6286 12.2145 16.1198 12.0897C16.611 11.9665 17.0446 11.8657 17.7406 11.8945C18.4366 11.9217 18.947 12.3105 19.1166 12.8833C19.2862 13.4561 19.1406 13.9073 18.7678 14.2689C18.3966 14.6305 17.8254 14.9265 17.2638 15.1009C16.699 15.2769 15.963 15.4497 15.963 15.4497L15.1438 12.3921ZM20.6734 19.0241C20.3694 19.3201 19.7022 19.6897 19.0222 19.9281C18.3422 20.1649 17.3006 20.4209 17.3006 20.4209L16.3886 17.0225C16.3886 17.0225 17.3694 16.7041 18.1566 16.5489C18.9438 16.3937 19.6478 16.4209 19.979 16.4897C20.3102 16.5601 20.9086 16.7473 21.1166 17.5249C21.3246 18.3025 20.9774 18.7297 20.6734 19.0257V19.0241Z" fill="white"/>
</svg>
