<svg width="21" height="20" viewBox="0 0 21 20" fill="none" xmlns="http://www.w3.org/2000/svg">
<path d="M11.0667 17.0166H5.80001C3.16667 17.0166 2.29167 15.2666 2.29167 13.5083V6.49161C2.29167 3.85828 3.16667 2.98328 5.80001 2.98328H11.0667C13.7 2.98328 14.575 3.85828 14.575 6.49161V13.5083C14.575 16.1416 13.6917 17.0166 11.0667 17.0166Z" stroke="white" stroke-width="1.5" stroke-linecap="round" stroke-linejoin="round"/>
<path d="M16.8917 14.25L14.575 12.625V7.36665L16.8917 5.74165C18.025 4.94999 18.9583 5.43332 18.9583 6.82499V13.175C18.9583 14.5667 18.025 15.05 16.8917 14.25Z" stroke="white" stroke-width="1.5" stroke-linecap="round" stroke-linejoin="round"/>
<path d="M10.2083 9.16663C10.8987 9.16663 11.4583 8.60698 11.4583 7.91663C11.4583 7.22627 10.8987 6.66663 10.2083 6.66663C9.51797 6.66663 8.95833 7.22627 8.95833 7.91663C8.95833 8.60698 9.51797 9.16663 10.2083 9.16663Z" stroke="white" stroke-width="1.5" stroke-linecap="round" stroke-linejoin="round"/>
</svg>
