<svg width="32" height="32" viewBox="0 0 32 32" fill="none" xmlns="http://www.w3.org/2000/svg">
<rect width="32" height="32" rx="8" fill="url(#paint0_linear_598_2837)"/>
<path d="M11 6H10C7 6 6 7.79 6 10V11V25C6 25.83 6.94 26.3 7.6 25.8L9.31 24.52C9.71 24.22 10.27 24.26 10.63 24.62L12.29 26.29C12.68 26.68 13.32 26.68 13.71 26.29L15.39 24.61C15.74 24.26 16.3 24.22 16.69 24.52L18.4 25.8C19.06 26.29 20 25.82 20 25V8C20 6.9 20.9 6 22 6H11ZM15.25 17.75H10.75C10.34 17.75 10 17.41 10 17C10 16.59 10.34 16.25 10.75 16.25H15.25C15.66 16.25 16 16.59 16 17C16 17.41 15.66 17.75 15.25 17.75ZM16 13.75H10C9.59 13.75 9.25 13.41 9.25 13C9.25 12.59 9.59 12.25 10 12.25H16C16.41 12.25 16.75 12.59 16.75 13C16.75 13.41 16.41 13.75 16 13.75Z" fill="white"/>
<path d="M22.01 6V7.5C22.67 7.5 23.3 7.77 23.76 8.22C24.24 8.71 24.5 9.34 24.5 10V12.42C24.5 13.16 24.17 13.5 23.42 13.5H21.5V8.01C21.5 7.73 21.73 7.5 22.01 7.5V6ZM22.01 6C20.9 6 20 6.9 20 8.01V15H23.42C25 15 26 14 26 12.42V10C26 8.9 25.55 7.9 24.83 7.17C24.1 6.45 23.11 6.01 22.01 6C22.02 6 22.01 6 22.01 6Z" fill="white"/>
<defs>
<linearGradient id="paint0_linear_598_2837" x1="0" y1="0" x2="29.5" y2="32" gradientUnits="userSpaceOnUse">
<stop stop-color="#36D1DB"/>
<stop offset="1" stop-color="#5C87E6"/>
</linearGradient>
</defs>
</svg>
