<svg width="32" height="32" viewBox="0 0 32 32" fill="none" xmlns="http://www.w3.org/2000/svg">
<rect width="32" height="32" rx="8" fill="url(#paint0_linear_598_2822)"/>
<path d="M18.35 6H13.65C12.61 6 11.76 6.84 11.76 7.88V8.82C11.76 9.86 12.6 10.7 13.64 10.7H18.35C19.39 10.7 20.23 9.86 20.23 8.82V7.88C20.24 6.84 19.39 6 18.35 6Z" fill="white"/>
<path d="M21.24 8.81998C21.24 10.41 19.94 11.71 18.35 11.71H13.65C12.06 11.71 10.76 10.41 10.76 8.81998C10.76 8.25998 10.16 7.90998 9.66 8.16998C8.25 8.91998 7.29 10.41 7.29 12.12V21.53C7.29 23.99 9.3 26 11.76 26H20.24C22.7 26 24.71 23.99 24.71 21.53V12.12C24.71 10.41 23.75 8.91998 22.34 8.16998C21.84 7.90998 21.24 8.25998 21.24 8.81998ZM16.38 20.95H12C11.59 20.95 11.25 20.61 11.25 20.2C11.25 19.79 11.59 19.45 12 19.45H16.38C16.79 19.45 17.13 19.79 17.13 20.2C17.13 20.61 16.79 20.95 16.38 20.95ZM19 16.95H12C11.59 16.95 11.25 16.61 11.25 16.2C11.25 15.79 11.59 15.45 12 15.45H19C19.41 15.45 19.75 15.79 19.75 16.2C19.75 16.61 19.41 16.95 19 16.95Z" fill="white"/>
<defs>
<linearGradient id="paint0_linear_598_2822" x1="0" y1="0" x2="27.5" y2="32" gradientUnits="userSpaceOnUse">
<stop stop-color="#F0C238"/>
<stop offset="1" stop-color="#F05440"/>
</linearGradient>
</defs>
</svg>
