<svg width="17" height="16" viewBox="0 0 17 16" fill="none" xmlns="http://www.w3.org/2000/svg">
<path d="M6.88001 8.30664L4.84668 10.34" stroke="white" stroke-miterlimit="10" stroke-linecap="round" stroke-linejoin="round"/>
<path d="M4.86667 8.32666L6.9 10.36" stroke="white" stroke-miterlimit="10" stroke-linecap="round" stroke-linejoin="round"/>
<path d="M9.51999 9.33325H9.52666" stroke="white" stroke-miterlimit="10" stroke-linecap="round" stroke-linejoin="round"/>
<path d="M12.1467 9.33325H12.1533" stroke="white" stroke-miterlimit="10" stroke-linecap="round" stroke-linejoin="round"/>
<path d="M10.8333 10.6532V10.6399" stroke="white" stroke-miterlimit="10" stroke-linecap="round" stroke-linejoin="round"/>
<path d="M10.8333 8.02676V8.01343" stroke="white" stroke-miterlimit="10" stroke-linecap="round" stroke-linejoin="round"/>
<path d="M6.50001 14.6667H10.5C13.8333 14.6667 15.1667 13.3333 15.1667 10V8.66667C15.1667 5.33333 13.8333 4 10.5 4H6.50001C3.16668 4 1.83334 5.33333 1.83334 8.66667V10C1.83334 13.3333 3.16668 14.6667 6.50001 14.6667Z" stroke="white" stroke-linecap="round" stroke-linejoin="round"/>
<path d="M9.17334 1.33325L9.16667 2.00659C9.16001 2.37325 8.86667 2.66659 8.50001 2.66659H8.48001C8.11334 2.66659 7.82001 2.96659 7.82001 3.33325C7.82001 3.69992 8.12001 3.99992 8.48667 3.99992H9.15334" stroke="white" stroke-linecap="round" stroke-linejoin="round"/>
</svg>
