<svg width="33" height="33" viewBox="0 0 33 33" fill="none" xmlns="http://www.w3.org/2000/svg">
<path d="M0.475254 8.13672C0.475254 3.71844 4.05698 0.136719 8.47525 0.136719H24.4753C28.8935 0.136719 32.4753 3.71844 32.4753 8.13672V24.1367C32.4753 28.555 28.8935 32.1367 24.4753 32.1367H8.47525C4.05698 32.1367 0.475254 28.555 0.475254 24.1367V8.13672Z" fill="url(#paint0_linear_972_2741)"/>
<path d="M23.0153 8.30686L17.5153 6.24686C16.9453 6.03686 16.0153 6.03686 15.4453 6.24686L9.94525 8.30686C8.88525 8.70686 8.02525 9.94686 8.02525 11.0769V19.1769C8.02525 19.9869 8.55525 21.0569 9.20525 21.5369L14.7053 25.6469C15.6753 26.3769 17.2653 26.3769 18.2353 25.6469L23.7353 21.5369C24.3853 21.0469 24.9153 19.9869 24.9153 19.1769V11.0769C24.9253 9.94686 24.0653 8.70686 23.0153 8.30686ZM17.2253 17.0069V19.6369C17.2253 20.0469 16.8853 20.3869 16.4753 20.3869C16.0653 20.3869 15.7253 20.0469 15.7253 19.6369V17.0069C14.7153 16.6869 13.9753 15.7469 13.9753 14.6369C13.9753 13.2569 15.0953 12.1369 16.4753 12.1369C17.8553 12.1369 18.9753 13.2569 18.9753 14.6369C18.9753 15.7569 18.2353 16.6869 17.2253 17.0069Z" fill="white"/>
<defs>
<linearGradient id="paint0_linear_972_2741" x1="0.475254" y1="0.136719" x2="29.9753" y2="32.1367" gradientUnits="userSpaceOnUse">
<stop stop-color="#36D1DB"/>
<stop offset="1" stop-color="#5C87E6"/>
</linearGradient>
</defs>
</svg>
