<svg width="25" height="24" viewBox="0 0 25 24" fill="none" xmlns="http://www.w3.org/2000/svg">
<path d="M9.54085 2C6.92085 2 4.79085 4.13 4.79085 6.75C4.79085 9.32 6.80085 11.4 9.42085 11.49C9.50085 11.48 9.58085 11.48 9.64085 11.49C9.66085 11.49 9.67085 11.49 9.69085 11.49C9.70085 11.49 9.70085 11.49 9.71085 11.49C12.2708 11.4 14.2808 9.32 14.2908 6.75C14.2908 4.13 12.1608 2 9.54085 2Z" fill="#FF8F00"/>
<path d="M14.6208 14.1499C11.8308 12.2899 7.28085 12.2899 4.47085 14.1499C3.20085 14.9999 2.50085 16.1499 2.50085 17.3799C2.50085 18.6099 3.20085 19.7499 4.46085 20.5899C5.86085 21.5299 7.70085 21.9999 9.54085 21.9999C11.3808 21.9999 13.2208 21.5299 14.6208 20.5899C15.8808 19.7399 16.5808 18.5999 16.5808 17.3599C16.5708 16.1299 15.8808 14.9899 14.6208 14.1499Z" fill="#FF8F00"/>
<path d="M20.5308 7.3401C20.6908 9.2801 19.3108 10.9801 17.4008 11.2101C17.3908 11.2101 17.3908 11.2101 17.3808 11.2101H17.3508C17.2908 11.2101 17.2308 11.2101 17.1808 11.2301C16.2108 11.2801 15.3208 10.9701 14.6508 10.4001C15.6808 9.4801 16.2708 8.1001 16.1508 6.6001C16.0808 5.7901 15.8008 5.0501 15.3808 4.4201C15.7608 4.2301 16.2008 4.1101 16.6508 4.0701C18.6108 3.9001 20.3608 5.3601 20.5308 7.3401Z" fill="#FF8F00"/>
<path d="M22.5308 16.5899C22.4508 17.5599 21.8308 18.3999 20.7908 18.9699C19.7908 19.5199 18.5308 19.7799 17.2808 19.7499C18.0008 19.0999 18.4208 18.2899 18.5008 17.4299C18.6008 16.1899 18.0108 14.9999 16.8308 14.0499C16.1608 13.5199 15.3808 13.0999 14.5308 12.7899C16.7408 12.1499 19.5208 12.5799 21.2308 13.9599C22.1508 14.6999 22.6208 15.6299 22.5308 16.5899Z" fill="#FF8F00"/>
</svg>
