<svg width="21" height="20" viewBox="0 0 21 20" fill="none" xmlns="http://www.w3.org/2000/svg">
<path d="M8.34999 10.3833L5.80832 12.925" stroke="#FF8F00" stroke-width="1.5" stroke-miterlimit="10" stroke-linecap="round" stroke-linejoin="round"/>
<path d="M5.83334 10.4083L8.37501 12.95" stroke="#FF8F00" stroke-width="1.5" stroke-miterlimit="10" stroke-linecap="round" stroke-linejoin="round"/>
<path d="M11.65 11.6666H11.6583" stroke="#FF8F00" stroke-width="2" stroke-miterlimit="10" stroke-linecap="round" stroke-linejoin="round"/>
<path d="M14.9333 11.6666H14.9417" stroke="#FF8F00" stroke-width="2" stroke-miterlimit="10" stroke-linecap="round" stroke-linejoin="round"/>
<path d="M13.2917 13.3167V13.3" stroke="#FF8F00" stroke-width="2" stroke-miterlimit="10" stroke-linecap="round" stroke-linejoin="round"/>
<path d="M13.2917 10.0334V10.0167" stroke="#FF8F00" stroke-width="2" stroke-miterlimit="10" stroke-linecap="round" stroke-linejoin="round"/>
<path d="M7.87499 18.3333H12.875C17.0417 18.3333 18.7083 16.6667 18.7083 12.5V10.8333C18.7083 6.66667 17.0417 5 12.875 5H7.87499C3.70832 5 2.04166 6.66667 2.04166 10.8333V12.5C2.04166 16.6667 3.70832 18.3333 7.87499 18.3333Z" stroke="#FF8F00" stroke-width="1.5" stroke-linecap="round" stroke-linejoin="round"/>
<path d="M11.2167 1.66663L11.2083 2.50829C11.2 2.96663 10.8333 3.33329 10.375 3.33329H10.35C9.89166 3.33329 9.52499 3.70829 9.52499 4.16663C9.52499 4.62496 9.89999 4.99996 10.3583 4.99996H11.1917" stroke="#FF8F00" stroke-width="1.5" stroke-linecap="round" stroke-linejoin="round"/>
</svg>
