<svg width="200" height="200" viewBox="0 0 200 200" fill="none" xmlns="http://www.w3.org/2000/svg">
<g clip-path="url(#clip0_730_2599)">
<rect width="200" height="200" rx="100" fill="white"/>
<path d="M45 112.6C42.6 114.5 40.1 117.3 39.4 120.8C38.4 125.6 39.2 131.6 43.8 136.4C49.4 142.1 58 143.7 61.7 144C71.7 144.7 82.4 139.7 90.5 134.1C93.7 131.9 99.1 127.4 104.2 120.5C92.6 114.5 78.1 107.9 62.7 108.5C54.8 108.8 49.1 110.4 45 112.6ZM192 139.1C197.1 127.1 200 113.9 200 100C200 44.9 155.1 0 100 0C44.9 0 0 44.9 0 100C0 155.1 44.9 200 100 200C133.3 200 162.8 183.6 181 158.6C163.8 150.1 135.5 136 118 127.5C109.7 137 97.4 146.5 83.5 150.6C74.8 153.2 66.9 154.2 58.7 152.5C50.5 150.8 44.5 147 41 143.2C39.2 141.2 37.2 138.8 35.7 135.8C35.8 136 35.9 136.2 35.9 136.4C35.9 136.4 35 134.9 34.4 132.6C34.1 131.4 33.8 130.3 33.7 129.1C33.6 128.3 33.6 127.4 33.7 126.6C33.6 125.1 33.7 123.5 34 121.9C34.8 117.9 36.5 113.3 40.9 109.1C50.5 99.7 63.3 99.2 70 99.3C79.8 99.4 97 103.7 111.4 108.8C115.4 100.3 118 91.2 119.6 85.1H59.6V78.6H90.4V65.6H53.2V59H90.4V46C90.4 44.2 90.8 42.8 93.6 42.8H108.2V59H148.7V65.5H108.2V78.5H140.6C140.6 78.5 137.3 96.6 127.2 114.5C149.7 122.5 181.5 134.9 192 139.1Z" fill="#06B4FD"/>
</g>
<defs>
<clipPath id="clip0_730_2599">
<rect width="200" height="200" rx="100" fill="white"/>
</clipPath>
</defs>
</svg>
