<svg width="33" height="33" viewBox="0 0 33 33" fill="none" xmlns="http://www.w3.org/2000/svg">
<path d="M0.475254 8.13672C0.475254 3.71844 4.05698 0.136719 8.47525 0.136719H24.4753C28.8935 0.136719 32.4753 3.71844 32.4753 8.13672V24.1367C32.4753 28.555 28.8935 32.1367 24.4753 32.1367H8.47525C4.05698 32.1367 0.475254 28.555 0.475254 24.1367V8.13672Z" fill="url(#paint0_linear_972_2633)"/>
<path d="M18.2053 7.64686L19.9653 11.1669C20.2053 11.6569 20.8453 12.1269 21.3853 12.2169L24.5753 12.7469C26.6153 13.0869 27.0953 14.5669 25.6253 16.0269L23.1453 18.5069C22.7253 18.9269 22.4953 19.7369 22.6253 20.3169L23.3353 23.3869C23.8953 25.8169 22.6053 26.7569 20.4553 25.4869L17.4653 23.7169C16.9253 23.3969 16.0353 23.3969 15.4853 23.7169L12.4953 25.4869C10.3553 26.7569 9.05525 25.8069 9.61525 23.3869L10.3253 20.3169C10.4553 19.7369 10.2253 18.9269 9.80525 18.5069L7.32525 16.0269C5.86525 14.5669 6.33525 13.0869 8.37525 12.7469L11.5653 12.2169C12.0953 12.1269 12.7353 11.6569 12.9753 11.1669L14.7353 7.64686C15.6953 5.73686 17.2553 5.73686 18.2053 7.64686Z" fill="white"/>
<defs>
<linearGradient id="paint0_linear_972_2633" x1="0.475254" y1="0.136719" x2="29.9753" y2="32.1367" gradientUnits="userSpaceOnUse">
<stop stop-color="#36D1DB"/>
<stop offset="1" stop-color="#5C87E6"/>
</linearGradient>
</defs>
</svg>
