<svg width="33" height="33" viewBox="0 0 33 33" fill="none" xmlns="http://www.w3.org/2000/svg">
<path d="M0.475254 8.13672C0.475254 3.71844 4.05698 0.136719 8.47525 0.136719H24.4753C28.8935 0.136719 32.4753 3.71844 32.4753 8.13672V24.1367C32.4753 28.555 28.8935 32.1367 24.4753 32.1367H8.47525C4.05698 32.1367 0.475254 28.555 0.475254 24.1367V8.13672Z" fill="url(#paint0_linear_972_2669)"/>
<path d="M20.4753 6.13672H12.4753C8.97525 6.13672 7.47525 8.13672 7.47525 11.1367V21.1367C7.47525 24.1367 8.97525 26.1367 12.4753 26.1367H20.4753C23.9753 26.1367 25.4753 24.1367 25.4753 21.1367V11.1367C25.4753 8.13672 23.9753 6.13672 20.4753 6.13672ZM12.4753 16.3867H16.4753C16.8853 16.3867 17.2253 16.7267 17.2253 17.1367C17.2253 17.5467 16.8853 17.8867 16.4753 17.8867H12.4753C12.0653 17.8867 11.7253 17.5467 11.7253 17.1367C11.7253 16.7267 12.0653 16.3867 12.4753 16.3867ZM20.4753 21.8867H12.4753C12.0653 21.8867 11.7253 21.5467 11.7253 21.1367C11.7253 20.7267 12.0653 20.3867 12.4753 20.3867H20.4753C20.8853 20.3867 21.2253 20.7267 21.2253 21.1367C21.2253 21.5467 20.8853 21.8867 20.4753 21.8867ZM22.9753 13.3867H20.9753C19.4553 13.3867 18.2253 12.1567 18.2253 10.6367V8.63672C18.2253 8.22672 18.5653 7.88672 18.9753 7.88672C19.3853 7.88672 19.7253 8.22672 19.7253 8.63672V10.6367C19.7253 11.3267 20.2853 11.8867 20.9753 11.8867H22.9753C23.3853 11.8867 23.7253 12.2267 23.7253 12.6367C23.7253 13.0467 23.3853 13.3867 22.9753 13.3867Z" fill="white"/>
<defs>
<linearGradient id="paint0_linear_972_2669" x1="0.475254" y1="0.136719" x2="27.9753" y2="32.1367" gradientUnits="userSpaceOnUse">
<stop stop-color="#F0C238"/>
<stop offset="1" stop-color="#F05440"/>
</linearGradient>
</defs>
</svg>
