<svg width="32" height="32" viewBox="0 0 32 32" fill="none" xmlns="http://www.w3.org/2000/svg">
<rect width="32" height="32" rx="8" fill="url(#paint0_linear_598_2850)"/>
<path d="M22.81 10.25H24.17C23.98 9.97998 23.78 9.72998 23.57 9.47998L22.81 10.25Z" fill="white"/>
<path d="M22.52 8.42007C22.27 8.21007 22.02 8.01007 21.75 7.82007V9.18007L22.52 8.42007Z" fill="white"/>
<path d="M23.58 9.47994L26.53 6.52994C26.82 6.23994 26.82 5.75994 26.53 5.46994C26.24 5.17994 25.76 5.17994 25.47 5.46994L22.52 8.41994C22.9 8.74994 23.25 9.10994 23.58 9.47994Z" fill="white"/>
<path d="M21.75 7C21.75 6.59 21.41 6.25 21 6.25C20.6 6.25 20.28 6.57 20.26 6.96C20.78 7.21 21.28 7.49 21.75 7.82V7Z" fill="white"/>
<path d="M25.75 11C25.75 10.59 25.41 10.25 25 10.25H24.17C24.5 10.72 24.79 11.22 25.03 11.74C25.43 11.72 25.75 11.4 25.75 11Z" fill="white"/>
<path d="M16.75 18.75H17.05C17.44 18.75 17.75 18.4 17.75 17.97C17.75 17.43 17.6 17.35 17.26 17.23L16.75 17.05V18.75Z" fill="white"/>
<path d="M25.04 11.74C25.03 11.74 25.02 11.75 25 11.75H21C20.9 11.75 20.81 11.73 20.71 11.69C20.53 11.61 20.38 11.47 20.3 11.28C20.27 11.19 20.25 11.1 20.25 11V7C20.25 6.99 20.26 6.98 20.26 6.96C18.96 6.35 17.52 6 16 6C10.48 6 6 10.48 6 16C6 21.52 10.48 26 16 26C21.52 26 26 21.52 26 16C26 14.48 25.65 13.04 25.04 11.74ZM17.75 15.82C18.39 16.04 19.25 16.51 19.25 17.98C19.25 19.23 18.26 20.26 17.05 20.26H16.75V20.51C16.75 20.92 16.41 21.26 16 21.26C15.59 21.26 15.25 20.92 15.25 20.51V20.26H15.17C13.84 20.26 12.75 19.14 12.75 17.76C12.75 17.34 13.09 17 13.5 17C13.91 17 14.25 17.34 14.25 17.75C14.25 18.3 14.66 18.75 15.17 18.75H15.25V16.53L14.25 16.18C13.61 15.96 12.75 15.49 12.75 14.02C12.75 12.77 13.74 11.74 14.95 11.74H15.25V11.5C15.25 11.09 15.59 10.75 16 10.75C16.41 10.75 16.75 11.09 16.75 11.5V11.75H16.83C18.16 11.75 19.25 12.87 19.25 14.25C19.25 14.66 18.91 15 18.5 15C18.09 15 17.75 14.66 17.75 14.25C17.75 13.7 17.34 13.25 16.83 13.25H16.75V15.47L17.75 15.82Z" fill="white"/>
<path d="M14.25 14.03C14.25 14.57 14.4 14.65 14.74 14.77L15.25 14.95V13.25H14.95C14.57 13.25 14.25 13.6 14.25 14.03Z" fill="white"/>
<defs>
<linearGradient id="paint0_linear_598_2850" x1="0" y1="0" x2="32" y2="36.5" gradientUnits="userSpaceOnUse">
<stop stop-color="#A8E063"/>
<stop offset="1" stop-color="#57AB2E"/>
</linearGradient>
</defs>
</svg>
