<svg width="20" height="20" viewBox="0 0 20 20" fill="none" xmlns="http://www.w3.org/2000/svg">
<path d="M16.6417 8.33337H3.30833V15C3.30833 17.5 4.14167 18.3334 6.64167 18.3334H13.3083C15.8083 18.3334 16.6417 17.5 16.6417 15V8.33337Z" stroke="#FF8F00" stroke-width="1.5" stroke-miterlimit="10" stroke-linecap="round" stroke-linejoin="round"/>
<path d="M17.9167 5.83329V6.66663C17.9167 7.58329 17.475 8.33329 16.25 8.33329H3.74999C2.47499 8.33329 2.08333 7.58329 2.08333 6.66663V5.83329C2.08333 4.91663 2.47499 4.16663 3.74999 4.16663H16.25C17.475 4.16663 17.9167 4.91663 17.9167 5.83329Z" stroke="#FF8F00" stroke-width="1.5" stroke-miterlimit="10" stroke-linecap="round" stroke-linejoin="round"/>
<path d="M9.7 4.16662H5.1C4.81667 3.85828 4.825 3.38328 5.125 3.08328L6.30833 1.89995C6.61667 1.59162 7.125 1.59162 7.43333 1.89995L9.7 4.16662Z" stroke="#FF8F00" stroke-width="1.5" stroke-miterlimit="10" stroke-linecap="round" stroke-linejoin="round"/>
<path d="M14.8917 4.16662H10.2917L12.5583 1.89995C12.8667 1.59162 13.375 1.59162 13.6833 1.89995L14.8667 3.08328C15.1667 3.38328 15.175 3.85828 14.8917 4.16662Z" stroke="#FF8F00" stroke-width="1.5" stroke-miterlimit="10" stroke-linecap="round" stroke-linejoin="round"/>
<path d="M7.45 8.33337V12.6167C7.45 13.2834 8.18333 13.675 8.74166 13.3167L9.525 12.8C9.80833 12.6167 10.1667 12.6167 10.4417 12.8L11.1833 13.3C11.7333 13.6667 12.475 13.275 12.475 12.6084V8.33337H7.45Z" stroke="#FF8F00" stroke-width="1.5" stroke-miterlimit="10" stroke-linecap="round" stroke-linejoin="round"/>
</svg>
