<svg width="25" height="24" viewBox="0 0 25 24" fill="none" xmlns="http://www.w3.org/2000/svg">
<path d="M20.642 1.75H17.702C16.432 1.75 15.672 2.51 15.672 3.78V6.72C15.672 7.99 16.432 8.75 17.702 8.75H20.642C21.912 8.75 22.672 7.99 22.672 6.72V3.78C22.672 2.51 21.912 1.75 20.642 1.75ZM20.862 5.06C20.742 5.18 20.582 5.24 20.422 5.24C20.262 5.24 20.102 5.18 19.982 5.06L19.802 4.88V7.12C19.802 7.47 19.522 7.75 19.172 7.75C18.822 7.75 18.542 7.47 18.542 7.12V4.88L18.362 5.06C18.122 5.3 17.722 5.3 17.482 5.06C17.242 4.82 17.242 4.42 17.482 4.18L18.732 2.93C18.782 2.88 18.852 2.84 18.922 2.81C18.942 2.8 18.962 2.8 18.982 2.79C19.032 2.77 19.082 2.76 19.142 2.76C19.162 2.76 19.182 2.76 19.202 2.76C19.272 2.76 19.332 2.77 19.402 2.8C19.412 2.8 19.412 2.8 19.422 2.8C19.492 2.83 19.552 2.87 19.602 2.92C19.612 2.93 19.612 2.93 19.622 2.93L20.872 4.18C21.112 4.42 21.112 4.82 20.862 5.06Z" fill="#FF8F00"/>
<path d="M2.67204 11.46V16.46C2.67204 18.75 4.52204 20.6 6.81204 20.6H18.522C20.812 20.6 22.672 18.74 22.672 16.45V11.46C22.672 10.79 22.132 10.25 21.462 10.25H3.88204C3.21204 10.25 2.67204 10.79 2.67204 11.46ZM8.67204 17.25H6.67204C6.26204 17.25 5.92204 16.91 5.92204 16.5C5.92204 16.09 6.26204 15.75 6.67204 15.75H8.67204C9.08204 15.75 9.42204 16.09 9.42204 16.5C9.42204 16.91 9.08204 17.25 8.67204 17.25ZM15.172 17.25H11.172C10.762 17.25 10.422 16.91 10.422 16.5C10.422 16.09 10.762 15.75 11.172 15.75H15.172C15.582 15.75 15.922 16.09 15.922 16.5C15.922 16.91 15.582 17.25 15.172 17.25Z" fill="#FF8F00"/>
<path d="M14.172 4.6099V7.5399C14.172 8.2099 13.632 8.7499 12.962 8.7499H3.88204C3.20204 8.7499 2.67204 8.1899 2.67204 7.5199C2.68204 6.3899 3.13204 5.3599 3.88204 4.6099C4.63204 3.8599 5.67204 3.3999 6.81204 3.3999H12.962C13.632 3.3999 14.172 3.9399 14.172 4.6099Z" fill="#FF8F00"/>
</svg>
