<svg width="21" height="20" viewBox="0 0 21 20" fill="none" xmlns="http://www.w3.org/2000/svg">
<path d="M15.9583 7.5H5.04167C4.11667 7.5 3.375 8.24167 3.375 9.16667V14.1667C3.375 15.0917 4.11667 15.8333 5.04167 15.8333H15.9583C16.8833 15.8333 17.625 15.0917 17.625 14.1667V9.16667C17.625 8.24167 16.8833 7.5 15.9583 7.5Z" stroke="#FF8F00" stroke-width="1.5" stroke-linecap="round" stroke-linejoin="round"/>
<path d="M10.5 7.5V15.8333" stroke="#FF8F00" stroke-width="1.5" stroke-linecap="round" stroke-linejoin="round"/>
<path d="M7 7.5C7 6.83696 7.26339 6.20107 7.73223 5.73223C8.20107 5.26339 8.83696 5 9.5 5C10.163 5 10.7989 5.26339 11.2678 5.73223C11.7366 6.20107 12 6.83696 12 7.5" stroke="#FF8F00" stroke-width="1.5" stroke-linecap="round" stroke-linejoin="round"/>
<path d="M14 7.5C14 6.83696 13.7366 6.20107 13.2678 5.73223C12.7989 5.26339 12.163 5 11.5 5C10.837 5 10.2011 5.26339 9.73223 5.73223C9.26339 6.20107 9 6.83696 9 7.5" stroke="#FF8F00" stroke-width="1.5" stroke-linecap="round" stroke-linejoin="round"/>
<path d="M3.375 10H17.625" stroke="#FF8F00" stroke-width="1.5" stroke-linecap="round" stroke-linejoin="round"/>
</svg>
