<svg width="326" height="59" viewBox="0 0 326 59" fill="none" xmlns="http://www.w3.org/2000/svg">
<g clip-path="url(#clip0_34_10165)">
<rect width="326" height="59" rx="8" fill="url(#paint0_linear_34_10165)"/>
<path d="M234.592 58.6122L234.135 58.9502L189.321 -1.61261L189.778 -1.95068L234.592 58.6122ZM239.762 58.6122L239.305 58.9502L194.491 -1.61261L194.948 -1.95068L239.762 58.6122ZM244.932 58.6122L244.475 58.9502L199.661 -1.61261L200.118 -1.95068L244.932 58.6122ZM250.102 58.6122L249.645 58.9502L204.831 -1.61261L205.287 -1.95068L250.102 58.6122ZM255.271 58.6122L254.814 58.9502L210 -1.61261L210.456 -1.95068L255.271 58.6122ZM260.44 58.6122L259.984 58.9502L215.169 -1.61261L215.626 -1.95068L260.44 58.6122ZM265.61 58.6122L265.154 58.9502L220.339 -1.61261L220.796 -1.95068L265.61 58.6122ZM270.78 58.6122L270.323 58.9502L225.509 -1.61261L225.966 -1.95068L270.78 58.6122ZM275.95 58.6122L275.493 58.9502L230.679 -1.61261L231.136 -1.95068L275.95 58.6122ZM281.12 58.6122L280.663 58.9502L235.849 -1.61261L236.306 -1.95068L281.12 58.6122ZM286.29 58.6122L285.833 58.9502L241.019 -1.61261L241.476 -1.95068L286.29 58.6122Z" fill="#F0C590"/>
<path d="M284.816 58.6122L285.273 58.9502L330.087 -1.61261L329.63 -1.95068L284.816 58.6122ZM279.646 58.6122L280.103 58.9502L324.917 -1.61261L324.46 -1.95068L279.646 58.6122ZM274.476 58.6122L274.933 58.9502L319.747 -1.61261L319.29 -1.95068L274.476 58.6122ZM269.306 58.6122L269.763 58.9502L314.577 -1.61261L314.12 -1.95068L269.306 58.6122ZM264.137 58.6122L264.594 58.9502L309.408 -1.61261L308.951 -1.95068L264.137 58.6122ZM258.967 58.6122L259.424 58.9502L304.238 -1.61261L303.781 -1.95068L258.967 58.6122ZM253.797 58.6122L254.254 58.9502L299.068 -1.61261L298.611 -1.95068L253.797 58.6122ZM248.627 58.6122L249.084 58.9502L293.898 -1.61261L293.441 -1.95068L248.627 58.6122ZM243.457 58.6122L243.914 58.9502L288.728 -1.61261L288.271 -1.95068L243.457 58.6122ZM238.287 58.6122L238.744 58.9502L283.558 -1.61261L283.102 -1.95068L238.287 58.6122ZM233.117 58.6122L233.574 58.9502L278.388 -1.61261L277.932 -1.95068L233.117 58.6122Z" fill="#DEA662"/>
<rect x="54.5" y="-18" width="37" height="75" transform="rotate(30 54.5 -18)" fill="url(#paint1_linear_34_10165)"/>
<g clip-path="url(#clip1_34_10165)">
<path d="M29.4149 31.9648C28.4351 31.9648 27.5827 32.5099 27.1443 33.3133L23.0657 32.2523C23.0726 32.1619 23.076 32.0712 23.076 31.9804C23.076 31.1841 22.8128 30.4493 22.3688 29.858L26.2114 25.7321C26.4971 25.8722 26.8184 25.951 27.1581 25.951C28.3469 25.951 29.3105 24.9873 29.3105 23.7985C29.3105 22.6097 28.3469 21.646 27.1581 21.646C25.9693 21.646 25.0055 22.6097 25.0055 23.7985C25.0055 24.1928 25.1116 24.5622 25.2967 24.8801L21.4542 29.0059C20.902 28.6495 20.2442 28.4425 19.538 28.4425C17.5841 28.4425 16.0001 30.0265 16.0001 31.9804C16.0001 33.9344 17.5841 35.5184 19.538 35.5184C20.9629 35.5184 22.1908 34.676 22.7514 33.4622L26.8302 34.5232C26.8301 34.5321 26.8299 34.5409 26.8299 34.5497C26.8299 35.9774 27.9872 37.1348 29.4149 37.1348C30.8426 37.1348 31.9999 35.9774 31.9999 34.5497C31.9999 33.1221 30.8425 31.9648 29.4149 31.9648Z" fill="#8A4D31"/>
</g>
<path d="M42.714 36.9V35.122H44.646L44.814 31.23H41.538C40.866 34.24 39.004 36.242 35.98 36.956V35.08C37.982 34.52 39.242 33.19 39.732 31.23H37.45V29.69C36.89 30.082 36.26 30.418 35.56 30.698V28.57C37.436 27.688 38.57 26.288 39.158 24.16H41.048C40.558 26.386 39.48 28.164 37.8 29.438H46.2C44.52 28.164 43.442 26.386 42.952 24.16H44.842C45.43 26.288 46.564 27.688 48.44 28.57V30.698C47.81 30.432 47.236 30.138 46.704 29.788L46.438 36.9H42.714ZM49.504 34.45V32.812H56.742C57.162 32.602 57.568 32.364 57.932 32.126H50.554V30.502H61.74C61.054 31.37 60.284 32.154 59.402 32.812H62.496V34.45H57.722V36.9H53.536V35.22H55.902V34.45H49.504ZM49.938 26.232V24.622H55.076V24.02H56.924V24.622H62.062V26.232H49.938ZM51.03 29.998V26.68H60.97V29.998H51.03ZM52.85 28.682H59.15V27.968H52.85V28.682Z" fill="#8A4D31"/>
<path d="M104.832 23.948L105.588 24.404C105.024 25.4 104.46 26.216 103.896 26.852C103.296 27.548 102.492 28.232 101.496 28.904L101.028 28.148C101.844 27.68 102.588 27.068 103.248 26.312C103.824 25.64 104.352 24.86 104.832 23.948ZM105.228 29.3H102.804V28.472H109.968C109.932 29.972 109.86 31.184 109.74 32.108C109.62 33.02 109.428 33.668 109.152 34.028C108.888 34.376 108.456 34.568 107.856 34.604H105.672L105.432 33.752C106.128 33.776 106.788 33.788 107.412 33.788C108.06 33.788 108.48 33.512 108.684 32.96C108.9 32.384 109.032 31.172 109.092 29.3H106.104C105.816 30.608 105.42 31.652 104.904 32.42C104.292 33.284 103.368 34.052 102.144 34.736L101.592 34.016C102.696 33.416 103.536 32.756 104.1 32.036C104.604 31.34 104.976 30.428 105.228 29.3ZM108.216 23.792C108.912 25.64 110.148 27.104 111.936 28.172L111.36 28.856C109.5 27.656 108.204 26.108 107.472 24.212L108.216 23.792ZM114.912 26.24H122.1V28.664H114.912V26.24ZM121.272 27.92V26.984H115.74V27.92H121.272ZM118.368 23.672C118.56 23.984 118.74 24.32 118.908 24.704H123.708V25.52H113.292V24.704H117.96C117.78 24.392 117.588 24.092 117.384 23.828L118.368 23.672ZM113.028 31.7H118.284V31.232C119.028 30.944 119.904 30.596 120.912 30.176H114.192V29.396H122.616V30.02C121.608 30.488 120.444 30.968 119.136 31.472V31.7H123.972V32.492H119.136V33.608C119.136 34.328 118.776 34.7 118.068 34.7H116.376L116.148 33.908C116.82 33.944 117.348 33.968 117.732 33.968C118.092 33.968 118.284 33.764 118.284 33.356V32.492H113.028V31.7ZM127.056 23.564L127.908 23.636C127.764 24.476 127.62 25.268 127.476 25.988H129.552V26.48C129.444 28.376 129.048 30.032 128.376 31.436C129.072 31.976 129.636 32.468 130.08 32.9L129.492 33.584C129.084 33.152 128.568 32.696 127.968 32.192C127.368 33.188 126.6 34.04 125.676 34.748L125.088 34.028C126 33.368 126.732 32.576 127.296 31.64C126.744 31.196 126.12 30.728 125.448 30.236C125.82 29.18 126.144 28.04 126.432 26.816H125.16V25.988H126.612C126.78 25.196 126.924 24.392 127.056 23.564ZM127.68 30.908C128.256 29.72 128.592 28.352 128.7 26.816H127.296C127.008 28.088 126.708 29.144 126.396 29.984C126.852 30.308 127.284 30.62 127.68 30.908ZM129.96 28.736H132.672V27.224C133.32 26.66 133.932 25.976 134.52 25.16H130.308V24.32H135.504V25.16C134.928 25.988 134.268 26.768 133.548 27.488V28.736H135.996V29.576H133.548V33.416C133.548 34.184 133.224 34.568 132.6 34.568H130.872L130.644 33.752C131.136 33.752 131.676 33.764 132.252 33.764C132.528 33.764 132.672 33.56 132.672 33.152V29.576H129.96V28.736ZM137.388 25.352H140.688C140.76 24.824 140.82 24.272 140.88 23.708H141.744C141.684 24.284 141.624 24.836 141.552 25.352H147.78V26.192H141.432C141.324 26.84 141.216 27.44 141.096 27.992H146.592V28.748C146.112 30.068 145.344 31.208 144.3 32.168C145.296 32.924 146.52 33.488 147.96 33.872L147.528 34.664C145.956 34.208 144.66 33.56 143.64 32.732C142.584 33.524 141.3 34.184 139.812 34.7L139.356 33.884C140.808 33.44 142.02 32.864 143.004 32.168C142.056 31.232 141.384 30.104 140.988 28.796H140.904C140.76 29.372 140.592 29.888 140.424 30.344C139.8 31.928 138.864 33.332 137.616 34.58L137.076 33.884C138.204 32.72 139.056 31.424 139.632 30.008C140.016 28.976 140.328 27.704 140.568 26.192H137.388V25.352ZM141.792 28.796C142.2 29.912 142.824 30.86 143.664 31.64C144.588 30.824 145.26 29.876 145.68 28.796H141.792ZM150.732 32.072C150.996 32.072 151.224 32.18 151.392 32.408C151.548 32.624 151.632 32.9 151.632 33.248C151.632 33.776 151.476 34.244 151.164 34.652C150.852 35.036 150.432 35.3 149.928 35.432V34.844C150.24 34.736 150.492 34.556 150.684 34.316C150.852 34.064 150.948 33.8 150.948 33.512C150.9 33.536 150.804 33.56 150.684 33.56C150.48 33.56 150.312 33.488 150.168 33.344C150.024 33.2 149.952 33.02 149.952 32.816C149.952 32.588 150.024 32.408 150.168 32.276C150.312 32.132 150.492 32.072 150.732 32.072ZM166.14 24.2H171.828V25.016H169.44C169.38 25.472 169.308 25.904 169.212 26.336H171.456V32H170.616V27.128H167.508V32.096H166.656V26.336H168.372C168.468 25.904 168.54 25.472 168.588 25.016H166.14V24.2ZM169.956 32.036C170.772 32.732 171.456 33.44 172.02 34.136L171.408 34.748C170.916 34.076 170.232 33.356 169.368 32.6L169.956 32.036ZM168.636 27.92H169.452V29.984C169.428 31.268 169.176 32.3 168.708 33.068C168.252 33.776 167.508 34.34 166.476 34.748L166.02 34.016C166.992 33.644 167.676 33.14 168.06 32.516C168.42 31.868 168.612 31.028 168.636 29.984V27.92ZM163.356 23.804H164.004C164.82 24.752 165.612 25.76 166.38 26.828L165.804 27.44C165.024 26.264 164.34 25.328 163.764 24.632C163.08 25.856 162.288 26.972 161.388 27.98L160.896 27.284C161.796 26.3 162.612 25.136 163.356 23.804ZM161.58 29.048H165.876V29.768C165.36 30.86 164.772 31.832 164.1 32.696C164.568 33.14 165 33.584 165.384 34.028L164.76 34.64C164.04 33.74 163.056 32.78 161.796 31.76L162.372 31.208C162.78 31.532 163.164 31.856 163.536 32.18C164.028 31.52 164.496 30.74 164.952 29.852H161.58V29.048ZM163.608 26.408C164.136 27.116 164.532 27.728 164.82 28.256L164.196 28.7C163.896 28.124 163.488 27.488 162.984 26.792L163.608 26.408ZM179.064 31.412V32.264C178.692 32.36 178.332 32.444 177.972 32.528V34.7H177.132V32.72C175.884 32.984 174.6 33.212 173.256 33.404L173.052 32.564C173.412 32.516 173.772 32.456 174.132 32.408V24.98H173.184V24.164H178.896V24.812H183.54V25.604C183.276 27.824 182.724 29.72 181.896 31.292C182.472 32.276 183.192 33.188 184.044 34.016L183.468 34.676C182.664 33.848 181.992 32.984 181.44 32.084C180.792 33.092 180.024 33.956 179.124 34.664L178.536 33.992C179.508 33.224 180.312 32.312 180.96 31.232C180.072 29.528 179.544 27.668 179.376 25.652H178.896V24.98H177.972V31.676C178.344 31.592 178.704 31.508 179.064 31.412ZM180.168 25.652C180.312 27.38 180.732 28.952 181.416 30.38C182.064 29.012 182.508 27.44 182.724 25.652H180.168ZM177.132 31.868V30.236H174.972V32.276C175.704 32.156 176.424 32.012 177.132 31.868ZM174.972 29.456H177.132V27.632H174.972V29.456ZM174.972 26.84H177.132V24.98H174.972V26.84ZM190.68 29.204H195.288V32.936H190.68V29.204ZM194.496 32.18V29.972H191.448V32.18H194.496ZM185.508 25.316H187.332V23.684H188.16V25.316H189.96V26.084H188.16V27.86H189.936V28.652H188.4V30.344H189.948V31.136H188.4V33.224C188.472 33.26 188.532 33.284 188.592 33.308C189.3 33.548 190.932 33.68 193.476 33.68C194.58 33.668 195.408 33.656 195.948 33.632L195.804 34.496H193.668C190.68 34.496 188.808 34.316 188.064 33.98C187.416 33.68 186.828 33.152 186.324 32.396C186.156 33.212 185.94 33.968 185.652 34.676L185.028 34.112C185.556 32.72 185.856 31.148 185.904 29.42L186.648 29.504C186.624 30.128 186.576 30.728 186.504 31.304C186.816 31.892 187.176 32.36 187.584 32.708V28.652H185.364V27.86H187.332V26.084H185.508V25.316ZM192.024 25.076H190.368V24.284H195.456C195.456 26.324 195.336 27.548 195.108 27.956C194.892 28.364 194.508 28.568 193.956 28.568C193.716 28.568 193.44 28.544 193.104 28.52L192.888 27.764L193.764 27.824C194.136 27.812 194.364 27.656 194.46 27.356C194.556 27.068 194.616 26.312 194.628 25.076H192.828C192.672 25.928 192.468 26.6 192.204 27.104C191.868 27.692 191.376 28.22 190.728 28.676L190.164 27.968C190.74 27.584 191.172 27.164 191.46 26.708C191.712 26.288 191.904 25.748 192.024 25.076ZM202.452 23.66L203.22 24.068C203.004 24.308 202.776 24.536 202.536 24.752H205.98V25.436C204.684 27.74 202.272 29.036 198.768 29.312L198.396 28.532C199.476 28.46 200.436 28.304 201.3 28.052C200.928 27.596 200.532 27.176 200.124 26.804L200.88 26.444C201.312 26.852 201.72 27.284 202.104 27.764C203.352 27.26 204.324 26.504 204.996 25.52H201.492C200.556 26.072 199.452 26.492 198.168 26.78L197.664 25.988C199.8 25.58 201.396 24.812 202.452 23.66ZM201.996 31.16C202.452 31.628 202.896 32.132 203.304 32.672C204.636 32.096 205.68 31.268 206.448 30.212H202.896C201.84 30.716 200.592 31.1 199.14 31.352L198.624 30.584C201.24 30.32 203.172 29.516 204.42 28.196L205.164 28.604C204.876 28.892 204.576 29.168 204.24 29.42H207.528V30.104C205.824 32.936 202.656 34.4 198 34.508L197.652 33.68C199.524 33.668 201.144 33.44 202.5 32.984C202.092 32.444 201.672 31.952 201.228 31.52L201.996 31.16ZM213.288 24.176H219.816V24.944H213.288V24.176ZM213.984 25.784H219.096V28.436H213.984V25.784ZM218.28 27.74V26.48H214.8V27.74H218.28ZM219.636 29.3V34.712H218.82V34.22H214.236V34.712H213.42V29.3H219.636ZM214.236 33.464H216.12V32.096H214.236V33.464ZM216.936 33.464H218.82V32.096H216.936V33.464ZM214.236 31.376H216.12V30.02H214.236V31.376ZM216.936 30.02V31.376H218.82V30.02H216.936ZM210.684 29.744C210.252 30.212 209.784 30.668 209.28 31.124L209.016 30.212C210.528 28.844 211.548 27.512 212.052 26.216H209.256V25.388H210.996C210.816 24.86 210.6 24.344 210.36 23.852L211.176 23.612C211.428 24.212 211.632 24.752 211.776 25.256L211.428 25.388H212.916V26.12C212.628 26.996 212.16 27.86 211.524 28.724V28.748C212.1 29.132 212.64 29.564 213.12 30.056L212.652 30.764C212.28 30.32 211.908 29.936 211.524 29.612V34.7H210.684V29.744ZM221.196 26.936H223.584V25.304C222.9 25.424 222.204 25.52 221.496 25.568L221.232 24.764C223.188 24.608 224.82 24.272 226.128 23.744L226.548 24.476C225.876 24.74 225.18 24.956 224.46 25.124V26.936H226.68V27.764H224.46V28.316C225.204 28.964 225.972 29.696 226.764 30.524L226.248 31.292C225.552 30.404 224.952 29.708 224.46 29.204V34.7H223.584V29.312C223.008 30.476 222.252 31.532 221.316 32.48L220.932 31.484C222.168 30.404 223.056 29.168 223.584 27.788V27.764H221.196V26.936ZM227.676 24.824H228.54V32.24H227.676V24.824ZM230.256 34.592H228.492L228.312 33.752C228.888 33.776 229.44 33.8 229.968 33.8C230.316 33.8 230.496 33.596 230.496 33.212V23.732H231.372V33.428C231.372 34.196 231 34.592 230.256 34.592Z" fill="#8A4D31"/>
<rect x="270" y="17.5" width="40" height="24" rx="12" fill="#B66D39"/>
<path d="M282.332 23.948L283.088 24.404C282.524 25.4 281.96 26.216 281.396 26.852C280.796 27.548 279.992 28.232 278.996 28.904L278.528 28.148C279.344 27.68 280.088 27.068 280.748 26.312C281.324 25.64 281.852 24.86 282.332 23.948ZM282.728 29.3H280.304V28.472H287.468C287.432 29.972 287.36 31.184 287.24 32.108C287.12 33.02 286.928 33.668 286.652 34.028C286.388 34.376 285.956 34.568 285.356 34.604H283.172L282.932 33.752C283.628 33.776 284.288 33.788 284.912 33.788C285.56 33.788 285.98 33.512 286.184 32.96C286.4 32.384 286.532 31.172 286.592 29.3H283.604C283.316 30.608 282.92 31.652 282.404 32.42C281.792 33.284 280.868 34.052 279.644 34.736L279.092 34.016C280.196 33.416 281.036 32.756 281.6 32.036C282.104 31.34 282.476 30.428 282.728 29.3ZM285.716 23.792C286.412 25.64 287.648 27.104 289.436 28.172L288.86 28.856C287 27.656 285.704 26.108 284.972 24.212L285.716 23.792ZM292.412 26.24H299.6V28.664H292.412V26.24ZM298.772 27.92V26.984H293.24V27.92H298.772ZM295.868 23.672C296.06 23.984 296.24 24.32 296.408 24.704H301.208V25.52H290.792V24.704H295.46C295.28 24.392 295.088 24.092 294.884 23.828L295.868 23.672ZM290.528 31.7H295.784V31.232C296.528 30.944 297.404 30.596 298.412 30.176H291.692V29.396H300.116V30.02C299.108 30.488 297.944 30.968 296.636 31.472V31.7H301.472V32.492H296.636V33.608C296.636 34.328 296.276 34.7 295.568 34.7H293.876L293.648 33.908C294.32 33.944 294.848 33.968 295.232 33.968C295.592 33.968 295.784 33.764 295.784 33.356V32.492H290.528V31.7Z" fill="white"/>
</g>
<defs>
<linearGradient id="paint0_linear_34_10165" x1="0" y1="29.5" x2="326" y2="29.5" gradientUnits="userSpaceOnUse">
<stop stop-color="#FFE1BB"/>
<stop offset="1" stop-color="#FBD3A0"/>
</linearGradient>
<linearGradient id="paint1_linear_34_10165" x1="54.5" y1="19.5" x2="91.5" y2="19.5" gradientUnits="userSpaceOnUse">
<stop stop-color="white" stop-opacity="0"/>
<stop offset="1" stop-color="white" stop-opacity="0.3"/>
</linearGradient>
<clipPath id="clip0_34_10165">
<rect width="326" height="59" rx="8" fill="white"/>
</clipPath>
<clipPath id="clip1_34_10165">
<rect width="16" height="16" fill="white" transform="translate(16 21.5)"/>
</clipPath>
</defs>
</svg>
