<svg xmlns="http://www.w3.org/2000/svg" viewBox="0 0 200 200">
  <!-- 简化的QR码图形 -->
  <rect x="0" y="0" width="200" height="200" fill="white"/>
  <rect x="20" y="20" width="40" height="40" fill="black"/>
  <rect x="140" y="20" width="40" height="40" fill="black"/>
  <rect x="20" y="140" width="40" height="40" fill="black"/>
  <rect x="70" y="70" width="60" height="60" fill="black"/>
  <rect x="70" y="20" width="10" height="10" fill="black"/>
  <rect x="120" y="20" width="10" height="10" fill="black"/>
  <rect x="20" y="70" width="10" height="10" fill="black"/>
  <rect x="170" y="70" width="10" height="10" fill="black"/>
  <rect x="70" y="170" width="10" height="10" fill="black"/>
  <rect x="120" y="170" width="10" height="10" fill="black"/>
  <rect x="170" y="170" width="10" height="10" fill="black"/>
  <rect x="140" y="70" width="20" height="20" fill="black"/>
  <rect x="140" y="140" width="20" height="20" fill="black"/>
  <rect x="70" y="140" width="20" height="20" fill="black"/>
</svg> 